<svg id="facebook-logo" xmlns="http://www.w3.org/2000/svg" width="8.232" height="15.227" viewBox="0 0 8.232 15.227">
  <path id="Path_3579" data-name="Path 3579" d="M30,0,28.025,0a3.468,3.468,0,0,0-3.652,3.747V5.475H22.387a.311.311,0,0,0-.31.311v2.5a.31.31,0,0,0,.31.31h1.985v6.317a.31.31,0,0,0,.31.31h2.59a.31.31,0,0,0,.31-.31V8.6h2.321a.31.31,0,0,0,.31-.31v-2.5a.311.311,0,0,0-.311-.311H27.584V4.01c0-.7.168-1.061,1.085-1.061H30a.31.31,0,0,0,.31-.31V.314A.311.311,0,0,0,30,0Z" transform="translate(-22.077)" fill="#333"/>
</svg>
