<svg id="instagram_1_" data-name="instagram(1)" xmlns="http://www.w3.org/2000/svg" width="15.108" height="15.111" viewBox="0 0 15.108 15.111">
  <path id="Path_3587" data-name="Path 3587" d="M15.518,4.443a5.522,5.522,0,0,0-.351-1.833A3.871,3.871,0,0,0,12.956.4,5.536,5.536,0,0,0,11.123.047C10.314.009,10.057,0,8.005,0S5.7.009,4.891.044A5.523,5.523,0,0,0,3.058.4a3.687,3.687,0,0,0-1.34.874A3.72,3.72,0,0,0,.847,2.607,5.536,5.536,0,0,0,.5,4.44C.457,5.249.449,5.505.449,7.557s.009,2.308.044,3.114A5.521,5.521,0,0,0,.844,12.5a3.87,3.87,0,0,0,2.211,2.211,5.536,5.536,0,0,0,1.833.351c.806.036,1.063.044,3.114.044s2.308-.009,3.114-.044a5.52,5.52,0,0,0,1.833-.351A3.865,3.865,0,0,0,15.161,12.5a5.54,5.54,0,0,0,.351-1.833c.035-.806.044-1.063.044-3.114s0-2.308-.038-3.114Zm-1.361,6.17a4.142,4.142,0,0,1-.26,1.4,2.507,2.507,0,0,1-1.435,1.435,4.157,4.157,0,0,1-1.4.26c-.8.036-1.036.044-3.052.044s-2.258-.009-3.052-.044a4.14,4.14,0,0,1-1.4-.26,2.325,2.325,0,0,1-.868-.564,2.349,2.349,0,0,1-.564-.868,4.157,4.157,0,0,1-.26-1.4c-.036-.8-.044-1.036-.044-3.052s.009-2.258.044-3.052a4.14,4.14,0,0,1,.26-1.4,2.3,2.3,0,0,1,.567-.868,2.346,2.346,0,0,1,.868-.564,4.159,4.159,0,0,1,1.4-.26c.8-.035,1.036-.044,3.052-.044s2.258.009,3.052.044a4.142,4.142,0,0,1,1.4.26,2.324,2.324,0,0,1,.868.564,2.349,2.349,0,0,1,.564.868,4.159,4.159,0,0,1,.26,1.4c.035.8.044,1.036.044,3.052s-.009,2.252-.044,3.049Zm0,0" transform="translate(-0.449 0)" fill="#333"/>
  <path id="Path_3588" data-name="Path 3588" d="M128.831,124.5a3.882,3.882,0,1,0,3.882,3.882A3.883,3.883,0,0,0,128.831,124.5Zm0,6.4a2.518,2.518,0,1,1,2.518-2.518A2.518,2.518,0,0,1,128.831,130.9Zm0,0" transform="translate(-121.274 -120.825)" fill="#333"/>
  <path id="Path_3589" data-name="Path 3589" d="M364.262,89.508a.906.906,0,1,1-.906-.906A.906.906,0,0,1,364.262,89.508Zm0,0" transform="translate(-351.764 -85.986)" fill="#333"/>
</svg>
