<svg id="linkedin" xmlns="http://www.w3.org/2000/svg" width="14.166" height="14.166" viewBox="0 0 14.166 14.166">
  <path id="Path_3580" data-name="Path 3580" d="M17.641,17.269h0v-5.2c0-2.542-.547-4.5-3.518-4.5A3.085,3.085,0,0,0,11.348,9.1h-.041V7.811H8.489v9.458h2.934V12.586c0-1.233.234-2.425,1.761-2.425,1.5,0,1.527,1.407,1.527,2.5v4.6Z" transform="translate(-3.478 -3.103)" fill="#333"/>
  <path id="Path_3581" data-name="Path 3581" d="M.4,7.977H3.333v9.458H.4Z" transform="translate(-0.162 -3.269)" fill="#333"/>
  <path id="Path_3582" data-name="Path 3582" d="M1.7,0A1.709,1.709,0,1,0,3.4,1.7,1.7,1.7,0,0,0,1.7,0Z" fill="#333"/>
</svg>
