<svg id="pinterest" xmlns="http://www.w3.org/2000/svg" width="13.812" height="17" viewBox="0 0 13.812 17">
  <g id="Group_12488" data-name="Group 12488" transform="translate(0)">
    <path id="Path_3583" data-name="Path 3583" d="M55.141,0C50.482,0,48,2.986,48,6.241a4.56,4.56,0,0,0,2.194,3.99c.205.092.317.053.362-.137.04-.145.218-.84.3-1.169a.3.3,0,0,0-.072-.3,3.872,3.872,0,0,1-.8-2.349,4.58,4.58,0,0,1,4.877-4.475A4.176,4.176,0,0,1,59.38,6c0,2.789-1.476,4.719-3.394,4.719a1.519,1.519,0,0,1-1.6-1.864,20.2,20.2,0,0,0,.9-3.432,1.318,1.318,0,0,0-1.364-1.45A2.251,2.251,0,0,0,51.96,6.478a3.574,3.574,0,0,0,.323,1.529s-1.069,4.318-1.268,5.125a11.467,11.467,0,0,0,.079,3.767.112.112,0,0,0,.2.052,13.387,13.387,0,0,0,1.76-3.314c.132-.486.673-2.454.673-2.454a2.937,2.937,0,0,0,2.478,1.182c3.256,0,5.608-2.861,5.608-6.412C61.8,2.547,58.891,0,55.141,0Z" transform="translate(-48.004)" fill="#333"/>
  </g>
</svg>
