<svg id="twitter" xmlns="http://www.w3.org/2000/svg" width="17.578" height="14.282" viewBox="0 0 17.578 14.282">
  <g id="Group_12487" data-name="Group 12487" transform="translate(0 0)">
    <path id="Path_3578" data-name="Path 3578" d="M17.578,49.691a7.513,7.513,0,0,1-2.076.569,3.583,3.583,0,0,0,1.585-1.992,7.2,7.2,0,0,1-2.285.872A3.6,3.6,0,0,0,8.568,51.6a3.711,3.711,0,0,0,.083.822,10.2,10.2,0,0,1-7.428-3.769,3.6,3.6,0,0,0,1.107,4.816A3.559,3.559,0,0,1,.7,53.03v.04A3.62,3.62,0,0,0,3.59,56.61a3.6,3.6,0,0,1-.945.119,3.186,3.186,0,0,1-.682-.062,3.638,3.638,0,0,0,3.367,2.51A7.241,7.241,0,0,1,.862,60.714,6.75,6.75,0,0,1,0,60.665a10.145,10.145,0,0,0,5.528,1.617A10.186,10.186,0,0,0,15.785,52.028c0-.159-.005-.313-.013-.466A7.189,7.189,0,0,0,17.578,49.691Z" transform="translate(0 -48)" fill="#333"/>
  </g>
</svg>
