<svg xmlns="http://www.w3.org/2000/svg" width="16.518" height="16.597" viewBox="0 0 16.518 16.597">
  <g id="WA_Logo" transform="translate(-0.057)">
    <g id="Group_14632" data-name="Group 14632" transform="translate(0.057)">
      <path id="Path_4434" data-name="Path 4434" d="M14.169,2.412A8.226,8.226,0,0,0,1.224,12.336L.057,16.6l4.36-1.144a8.216,8.216,0,0,0,3.93,1h0A8.228,8.228,0,0,0,14.169,2.412ZM8.351,15.066h0a6.818,6.818,0,0,1-3.479-.953l-.25-.148-2.587.678.691-2.523-.163-.259a6.835,6.835,0,1,1,5.79,3.2Zm3.75-5.12c-.205-.1-1.216-.6-1.4-.669s-.325-.1-.463.1-.53.669-.651.806-.24.154-.445.051a5.609,5.609,0,0,1-1.653-1.02A6.186,6.186,0,0,1,6.341,7.793c-.12-.206-.012-.317.09-.419s.205-.24.308-.36a1.366,1.366,0,0,0,.207-.342.378.378,0,0,0-.017-.36c-.052-.1-.463-1.114-.633-1.526s-.336-.346-.463-.353-.257-.007-.394-.007a.753.753,0,0,0-.548.257A2.307,2.307,0,0,0,4.172,6.4a4,4,0,0,0,.839,2.126,9.156,9.156,0,0,0,3.51,3.1,11.891,11.891,0,0,0,1.171.433,2.825,2.825,0,0,0,1.295.082,2.117,2.117,0,0,0,1.387-.977,1.71,1.71,0,0,0,.12-.977C12.443,10.1,12.306,10.049,12.1,9.946Z" transform="translate(-0.057)" fill="#333" fill-rule="evenodd"/>
    </g>
  </g>
</svg>
