<svg id="delivery-man" xmlns="http://www.w3.org/2000/svg" width="15.078" height="26" viewBox="0 0 15.078 26">
  <path id="Path_10501" data-name="Path 10501" d="M215.215,7.385l1.1-1.583a2.677,2.677,0,0,1,.368-.424,2.173,2.173,0,0,1-.5-1.387V2.184A2.186,2.186,0,0,1,218.37,0h.2a2.186,2.186,0,0,1,1.945,1.193h1.415a.762.762,0,1,1,0,1.523h-1.177V3.991a2.171,2.171,0,0,1-.457,1.334,2.7,2.7,0,0,1,.49.576l.954,1.509,2.173,3.386V7.82a.762.762,0,0,1,.762-.762h4.715a.762.762,0,0,1,.762.762V12.2a.762.762,0,0,1-.762.762h-7.53V25.238a.762.762,0,0,1-1.523,0v-7.9H216.6v7.9a.762.762,0,0,1-1.523,0V7.82a.762.762,0,0,1,.137-.435Zm3.358-2.734a.661.661,0,0,0,.66-.66V2.717H217.71V3.991a.661.661,0,0,0,.66.66Zm.929,2.064a1.162,1.162,0,0,0-1.935-.042l-.765,1.1,2.353,3.666h1.186v-3.4Zm9.131,4.723V8.582h-3.192v2.856Zm-6.113,0-.655-1.021v1.021Zm-2.179,1.523h-1.6a.762.762,0,0,1-.641-.35l-1.5-2.331v5.537h3.739Zm0,0" transform="translate(-215.078 0)" fill="#fab75a"/>
</svg>
