<svg xmlns="http://www.w3.org/2000/svg" width="17.828" height="17.828" viewBox="0 0 17.828 17.828">
  <g id="Iconly_Light-Outline_Chart" data-name="Iconly/Light-Outline/Chart" transform="translate(-1 -1)">
    <g id="Chart" transform="translate(1 1)">
      <path id="Combined-Shape" d="M12.8,0c3.008,0,5.028,2.111,5.028,5.253v7.322c0,3.142-2.021,5.253-5.028,5.253H5.028C2.021,17.828,0,15.717,0,12.575V5.253C0,2.111,2.021,0,5.028,0Zm0,1.244H5.028c-2.3,0-3.785,1.573-3.785,4.009v7.322c0,2.436,1.486,4.009,3.785,4.009H12.8c2.3,0,3.785-1.573,3.785-4.009V5.253C16.584,2.817,15.1,1.244,12.8,1.244ZM5.076,6.8a.622.622,0,0,1,.622.622v5.688a.622.622,0,0,1-1.244,0V7.424A.622.622,0,0,1,5.076,6.8Zm3.87-2.723a.622.622,0,0,1,.622.622v8.411a.622.622,0,1,1-1.244,0V4.7A.622.622,0,0,1,8.946,4.078Zm3.806,5.729a.622.622,0,0,1,.622.622v2.682a.622.622,0,1,1-1.244,0V10.429A.622.622,0,0,1,12.752,9.808Z" fill="#d16d86" fill-rule="evenodd"/>
    </g>
  </g>
</svg>
