<svg xmlns="http://www.w3.org/2000/svg" width="18.165" height="19.91" viewBox="0 0 18.165 19.91">
  <g id="Iconly_Light-Outline_Document" data-name="Iconly/Light-Outline/Document" transform="translate(-3 -2)">
    <g id="Document" transform="translate(3 2)">
      <path id="Combined-Shape" d="M12.909,0a5.024,5.024,0,0,1,5.256,5.357v9.2a4.974,4.974,0,0,1-5.215,5.354l-7.693,0A5.025,5.025,0,0,1,0,14.553v-9.2A4.972,4.972,0,0,1,5.215,0l7.693,0Zm0,1.5L5.22,1.5A3.494,3.494,0,0,0,1.5,5.357v9.2A3.5,3.5,0,0,0,5.256,18.41l7.689,0a3.5,3.5,0,0,0,3.72-3.854v-9.2A3.5,3.5,0,0,0,12.909,1.5Zm-.193,11.974a.75.75,0,0,1,0,1.5H5.5a.75.75,0,1,1,0-1.5Zm0-4.186a.75.75,0,1,1,0,1.5H5.5a.75.75,0,0,1,0-1.5ZM8.25,5.11a.75.75,0,0,1,0,1.5H5.5a.75.75,0,0,1,0-1.5Z" fill="#4179e0" fill-rule="evenodd"/>
    </g>
  </g>
</svg>
