<svg xmlns="http://www.w3.org/2000/svg" width="18.458" height="20" viewBox="0 0 18.458 20">
  <g id="Iconly_Light-Outline_Delete" data-name="Iconly/Light-Outline/Delete" transform="translate(-3 -2)">
    <g id="Delete" transform="translate(3 2)">
      <path id="Combined-Shape" d="M16.385,6.72a.751.751,0,0,1,.688.808c-.006.068-.548,6.779-.86,9.594a2.976,2.976,0,0,1-3.09,2.842C11.79,19.987,10.5,20,9.247,20c-1.355,0-2.676-.015-3.983-.042a2.967,2.967,0,0,1-3.018-2.829c-.315-2.84-.854-9.534-.859-9.6a.749.749,0,0,1,.687-.808.77.77,0,0,1,.808.687c0,.043.224,2.777.464,5.482l.048.54c.121,1.344.244,2.636.343,3.536a1.472,1.472,0,0,0,1.558,1.494c2.5.053,5.051.056,7.8.006a1.5,1.5,0,0,0,1.626-1.507c.31-2.794.85-9.482.856-9.55A.766.766,0,0,1,16.385,6.72ZM11.345,0a2.033,2.033,0,0,1,1.962,1.506l.254,1.261a.9.9,0,0,0,.865.722h3.282a.75.75,0,1,1,0,1.5H.75a.75.75,0,1,1,0-1.5H4.031l.1-.006A.9.9,0,0,0,4.9,2.767L5.14,1.551A2.043,2.043,0,0,1,7.112,0Zm0,1.5H7.112a.529.529,0,0,0-.512.392l-.233,1.17a2.379,2.379,0,0,1-.128.427h5.979a2.386,2.386,0,0,1-.128-.427l-.243-1.216A.524.524,0,0,0,11.345,1.5Z" fill="#fab75a" fill-rule="evenodd"/>
    </g>
  </g>
</svg>
