<svg id="delivery-man_1_" data-name="delivery-man(1)" xmlns="http://www.w3.org/2000/svg" width="23.347" height="22.07" viewBox="0 0 23.347 22.07">
  <path id="Path_10502" data-name="Path 10502" d="M1.239,20.565H5.2A1.241,1.241,0,0,1,6.437,21.8v4.557H7.918A3.4,3.4,0,0,1,7.825,25.3h0a9.939,9.939,0,0,1,.936-4.347A4.665,4.665,0,0,1,10.211,19.2a3.171,3.171,0,0,1-.848-2.246,2.9,2.9,0,1,1,5.8,0,.342.342,0,0,1-.342.342H14.59a2.408,2.408,0,0,1,.033.394,2.375,2.375,0,0,1-1.908,2.326,5.764,5.764,0,0,1,.17,1.488l.853.734,2.075.168,2.394-.791a.725.725,0,0,1,.684,0,.607.607,0,0,1,.213.51v1.78a.342.342,0,0,1-.342.342h-.407l.624,2.158a.342.342,0,0,1-.657.19l-.68-2.348h-.972a11.033,11.033,0,0,1-.541,8.64h.615l2.561-2.863-.541-1.87a.342.342,0,0,1,.657-.19l.518,1.789a3.44,3.44,0,0,1,3.4,2.666.342.342,0,0,1-.257.41l-.486.112a2.617,2.617,0,0,1-5.057,1.164l-.383.088a.447.447,0,0,1-.331-.018.393.393,0,0,1-.193-.262,3.4,3.4,0,0,1-.055-.341H9.425a2.914,2.914,0,0,1-5.768,0H3.333a.468.468,0,0,1-.355-.129.438.438,0,0,1-.121-.333A3.877,3.877,0,0,1,3,32.189a5.336,5.336,0,0,1,.378-3.449.9.9,0,0,1-.409-.754v-.94H1.239A1.241,1.241,0,0,1,0,25.806v-4a1.241,1.241,0,0,1,1.239-1.24Zm17.727,14.27a1.918,1.918,0,0,0,1.459.246h0a1.938,1.938,0,0,0,1.5-1.98l-3.71.854A1.923,1.923,0,0,0,18.966,34.835Zm-1.711-1.362,5.32-1.224a2.754,2.754,0,0,0-2.723-1.8l-2.606,2.914Q17.249,33.416,17.254,33.473Zm-5.166-5.96a3.045,3.045,0,0,1,.1,1.031v1.291H13.44V28.065c0-2-1.092-2.358-1.583-2.417H8.5a1.45,1.45,0,0,0,.311.982A1.588,1.588,0,0,0,10,26.985h1.228a.824.824,0,0,1,.859.527Zm.1,3.006v.817h2.439a.975.975,0,0,0-.236-.585.844.844,0,0,0-.609-.232ZM8.52,24.963h3.11a12.772,12.772,0,0,0,.328-1.266l-.946-.614a1.412,1.412,0,0,1-.737-1.3,1.209,1.209,0,0,1,.753-.99,1.235,1.235,0,0,1,1.148.126,4.038,4.038,0,0,0-.165-.867,2.411,2.411,0,0,1-.433-.085,2.833,2.833,0,0,1-.8-.316C10.122,20.046,8.673,21.322,8.52,24.963Zm5.936-8.346a2.214,2.214,0,0,0-4.41.342,2.322,2.322,0,0,0,1.278,2.2v-1.8a.68.68,0,0,1,.687-.746h2.444ZM13.939,17.7a1.7,1.7,0,0,0-.046-.394H12.059l-.048.007a.407.407,0,0,0,0,.056v2a1.692,1.692,0,0,0,.245.018h0A1.688,1.688,0,0,0,13.939,17.7Zm.443,5.286-.81-.066a.342.342,0,0,1-.2-.082l-1.462-1.257h0a.679.679,0,0,0-.439-.184.526.526,0,0,0-.52.459.754.754,0,0,0,.428.659l1.629,1.057h1.369v-.587Zm1.445.117-.761-.062v.531h.885c.115,0,.143-.1.146-.175A.272.272,0,0,0,15.828,23.1Zm.809-.236a.988.988,0,0,1,.126.7s0,0,0,0h1.657v-1.3l-1.785.59Zm-.688,1.39H12.912a.342.342,0,0,1-.186-.055l-.155-.1c-.074.329-.159.649-.252.952.7.206,1.8.871,1.8,3.017v1.8a1.427,1.427,0,0,1,.761.409,1.668,1.668,0,0,1,.428,1.057H16a10.058,10.058,0,0,0-.054-7.084Zm-.564,8.639c.126-.291.248-.58.363-.871H12.2c-.46,0-.694-.21-.694-.623v-2.51H8.8a.342.342,0,0,1,0-.684h2.7a1.548,1.548,0,0,0-.052-.447c-.017-.046-.032-.085-.22-.085H10A2.207,2.207,0,0,1,8.319,27.1c-.017-.018-.033-.036-.049-.055H3.65v.94a.22.22,0,0,0,.216.217h3.4a.342.342,0,1,1,0,.684h-3.2A4.038,4.038,0,0,0,3.569,31a3.712,3.712,0,0,1,5.653-.441A3.768,3.768,0,0,1,10.3,32.892Zm-8.844,2.5a2.254,2.254,0,0,0,2.189-1.81H4.352a2.254,2.254,0,0,0,2.189,1.81ZM3.964,32.892H9.61a3.068,3.068,0,0,0-3.026-2.753,3.035,3.035,0,0,0-2.91,2.175l0,.012a3.157,3.157,0,0,0-.113.567ZM.684,25.806a.556.556,0,0,0,.555.556H5.753V24.6H.684Zm0-1.894H5.753v-.727H.684Zm0-1.411H5.753v-.7a.556.556,0,0,0-.555-.556H1.239a.556.556,0,0,0-.555.556Z" transform="translate(0 -14)" fill="#56a8c7"/>
</svg>
