<svg xmlns="http://www.w3.org/2000/svg" width="19.706" height="21.369" viewBox="0 0 19.706 21.369">
  <path id="cube" d="M18.445,3.775,13.06.666a4.481,4.481,0,0,0-4.468,0L3.207,3.775A4.48,4.48,0,0,0,.973,7.644v6.219a4.482,4.482,0,0,0,2.234,3.87l5.385,3.109a4.478,4.478,0,0,0,4.468,0l5.385-3.109a4.482,4.482,0,0,0,2.234-3.87V7.644a4.48,4.48,0,0,0-2.234-3.869ZM9.486,1.839a2.681,2.681,0,0,1,2.681,0l5.385,3.109c.137.086.775.566.894.676L12.392,9.179a3.154,3.154,0,0,1-3.151,0L3.207,5.624A5.267,5.267,0,0,1,4.1,4.948ZM3.969,16.426a3.562,3.562,0,0,1-1.457-2.751V7.457a2.585,2.585,0,0,1,.063-.478l5.782,3.381a4.906,4.906,0,0,0,1.575.567L9.8,19.719a2.584,2.584,0,0,1-.447-.184ZM19.16,13.843a3.41,3.41,0,0,1-1.608,2.583l-5.385,3.109a4.8,4.8,0,0,1-.613.241V10.985a5.982,5.982,0,0,0,1.741-.624l5.8-3.213a2.585,2.585,0,0,1,.063.478Z" transform="translate(-0.973 -0.069)" fill="#d16d86"/>
</svg>
