<svg xmlns="http://www.w3.org/2000/svg" width="18.497" height="21.5" viewBox="0 0 18.497 21.5">
  <g id="Iconly_Light-Outline_Notification" data-name="Iconly/Light-Outline/Notification" transform="translate(-3 -1)">
    <g id="Notification" transform="translate(3 1)">
      <path id="Combined-Shape" d="M7.324,19.106A2.523,2.523,0,0,0,9.2,20h0a2.531,2.531,0,0,0,1.88-.9.75.75,0,0,1,1.115,1A4.016,4.016,0,0,1,9.2,21.5h0a4,4,0,0,1-2.987-1.392.75.75,0,0,1,1.115-1ZM9.247,0c4.445,0,7.431,3.462,7.431,6.7a5.116,5.116,0,0,0,.872,3.116,5.429,5.429,0,0,1,.947,3.16c-.349,4.047-4.574,4.377-9.25,4.377S.345,17.018,0,13.035A5.477,5.477,0,0,1,.944,9.811L1.1,9.547A5.016,5.016,0,0,0,1.816,6.7C1.816,3.462,4.8,0,9.247,0Zm0,1.5c-3.495,0-5.931,2.738-5.931,5.2a6.52,6.52,0,0,1-1.087,3.888A3.954,3.954,0,0,0,1.5,12.971c.167,1.886,1.412,2.877,7.75,2.877,6.3,0,7.587-1.035,7.753-2.942a3.914,3.914,0,0,0-.735-2.323A6.52,6.52,0,0,1,15.178,6.7C15.178,4.238,12.742,1.5,9.247,1.5Z" fill="#333" fill-rule="evenodd"/>
    </g>
  </g>
</svg>
