<svg xmlns="http://www.w3.org/2000/svg" width="24" height="29.538" viewBox="0 0 24 29.538">
  <g id="Bell" transform="translate(-1.5)">
    <path id="Path_10" data-name="Path 10" d="M25.5,22.154H23.654V11.077A9.2,9.2,0,0,0,15.33,1.938c0-.033.017-.059.017-.092a1.846,1.846,0,0,0-3.692,0c0,.033.017.059.018.092a9.2,9.2,0,0,0-8.326,9.138V22.154H1.5V24H8.977a4.729,4.729,0,0,0-.092.923A4.615,4.615,0,1,0,18.021,24H25.5Zm-12,5.538a2.769,2.769,0,0,1-2.769-2.769A2.688,2.688,0,0,1,10.917,24h5.164a2.689,2.689,0,0,1,.188.923A2.769,2.769,0,0,1,13.5,27.692Zm8.308-9.231v3.692H5.192V11.077a7.385,7.385,0,0,1,7.385-7.385h1.846a7.386,7.386,0,0,1,7.385,7.385Z" transform="translate(0)" fill="#333"/>
  </g>
</svg>
