<svg xmlns="http://www.w3.org/2000/svg" width="20" height="18" viewBox="0 0 20 18">
  <g id="bx-camera" transform="translate(-2 -2)">
    <path id="Path_10534" data-name="Path 10534" d="M12,8a4,4,0,1,0,4,4A4.054,4.054,0,0,0,12,8Zm0,6a2,2,0,1,1,2-2A2.053,2.053,0,0,1,12,14Z" fill="#333"/>
    <path id="Path_10535" data-name="Path 10535" d="M20,5H17.414L14.707,2.293A1,1,0,0,0,14,2H10a1,1,0,0,0-.707.293L6.586,5H4A2,2,0,0,0,2,7V18a2,2,0,0,0,2,2H20a2,2,0,0,0,2-2V7A2,2,0,0,0,20,5ZM4,18V7H7a1,1,0,0,0,.707-.293L10.414,4h3.172l2.707,2.707A1,1,0,0,0,17,7h3l0,11Z" fill="#333"/>
  </g>
</svg>
