<svg xmlns="http://www.w3.org/2000/svg" width="8.296" height="6.812" viewBox="0 0 8.296 6.812">
  <g id="Iconly_Light-Outline_Arrow---Right" data-name="Iconly/Light-Outline/Arrow---Right" transform="translate(-4 -4.951)">
    <g id="Arrow---Right" transform="translate(4 11.764) rotate(-90)">
      <path id="Combined-Shape" d="M3.406,0A.377.377,0,0,1,3.78.326l0,.051V7.006L6.168,4.611a.377.377,0,0,1,.571.49L6.7,5.143,3.674,8.185a.378.378,0,0,1-.062.051l-.02.012-.018.01-.028.012-.022.008-.028.008-.02,0-.03,0-.023,0H3.392l-.022,0,.037,0a.378.378,0,0,1-.07-.006l-.016,0-.033-.009L3.27,8.271l-.033-.014-.015-.008L3.2,8.234l-.017-.012,0,0a.377.377,0,0,1-.038-.033h0L.11,5.143A.377.377,0,0,1,.6,4.574l.042.037L3.029,7V.377A.377.377,0,0,1,3.406,0Z" transform="translate(0)" fill="#333"/>
    </g>
  </g>
</svg>
