<svg xmlns="http://www.w3.org/2000/svg" width="19.5" height="19.5" viewBox="0 0 19.5 19.5">
  <path id="shopping-bag_1_" data-name="shopping-bag(1)" d="M17.063,4.875H14.625a4.875,4.875,0,1,0-9.75,0H2.438A2.438,2.438,0,0,0,0,7.313v8.125A4.067,4.067,0,0,0,4.063,19.5H15.438A4.067,4.067,0,0,0,19.5,15.438V7.313A2.437,2.437,0,0,0,17.063,4.875ZM9.75,1.625A3.25,3.25,0,0,1,13,4.875H6.5a3.25,3.25,0,0,1,3.25-3.25Zm8.125,13.813a2.437,2.437,0,0,1-2.437,2.438H4.063a2.437,2.437,0,0,1-2.437-2.437V7.313A.812.812,0,0,1,2.438,6.5H4.875V8.125a.813.813,0,0,0,1.625,0V6.5H13V8.125a.813.813,0,0,0,1.625,0V6.5h2.438a.813.813,0,0,1,.813.813Z" fill="#fab75a"/>
</svg>
