<svg id="apps" xmlns="http://www.w3.org/2000/svg" width="19.5" height="19.5" viewBox="0 0 19.5 19.5">
  <path id="Path_10564" data-name="Path 10564" d="M5.688,0H3.25A3.25,3.25,0,0,0,0,3.25V5.688a3.25,3.25,0,0,0,3.25,3.25H5.688a3.25,3.25,0,0,0,3.25-3.25V3.25A3.25,3.25,0,0,0,5.688,0ZM7.313,5.688A1.625,1.625,0,0,1,5.688,7.313H3.25A1.625,1.625,0,0,1,1.625,5.688V3.25A1.625,1.625,0,0,1,3.25,1.625H5.688A1.625,1.625,0,0,1,7.313,3.25Z" fill="#6dbea3"/>
  <path id="Path_10565" data-name="Path 10565" d="M18.688,0H16.25A3.25,3.25,0,0,0,13,3.25V5.688a3.25,3.25,0,0,0,3.25,3.25h2.438a3.25,3.25,0,0,0,3.25-3.25V3.25A3.25,3.25,0,0,0,18.688,0Zm1.625,5.688a1.625,1.625,0,0,1-1.625,1.625H16.25a1.625,1.625,0,0,1-1.625-1.625V3.25A1.625,1.625,0,0,1,16.25,1.625h2.438A1.625,1.625,0,0,1,20.313,3.25Z" transform="translate(-2.438)" fill="#6dbea3"/>
  <path id="Path_10566" data-name="Path 10566" d="M5.688,13H3.25A3.25,3.25,0,0,0,0,16.25v2.438a3.25,3.25,0,0,0,3.25,3.25H5.688a3.25,3.25,0,0,0,3.25-3.25V16.25A3.25,3.25,0,0,0,5.688,13Zm1.625,5.688a1.625,1.625,0,0,1-1.625,1.625H3.25a1.625,1.625,0,0,1-1.625-1.625V16.25A1.625,1.625,0,0,1,3.25,14.625H5.688A1.625,1.625,0,0,1,7.313,16.25Z" transform="translate(0 -2.438)" fill="#6dbea3"/>
  <path id="Path_10567" data-name="Path 10567" d="M18.688,13H16.25A3.25,3.25,0,0,0,13,16.25v2.438a3.25,3.25,0,0,0,3.25,3.25h2.438a3.25,3.25,0,0,0,3.25-3.25V16.25A3.25,3.25,0,0,0,18.688,13Zm1.625,5.688a1.625,1.625,0,0,1-1.625,1.625H16.25a1.625,1.625,0,0,1-1.625-1.625V16.25a1.625,1.625,0,0,1,1.625-1.625h2.438a1.625,1.625,0,0,1,1.625,1.625Z" transform="translate(-2.438 -2.438)" fill="#6dbea3"/>
</svg>
