<svg xmlns="http://www.w3.org/2000/svg" width="16.667" height="20" viewBox="0 0 16.667 20">
  <g id="lock" transform="translate(-2)">
    <path id="Path_10690" data-name="Path 10690" d="M16.167,7.02V5.833a5.833,5.833,0,0,0-11.667,0V7.02A4.167,4.167,0,0,0,2,10.833v5A4.172,4.172,0,0,0,6.167,20H14.5a4.172,4.172,0,0,0,4.167-4.167v-5A4.167,4.167,0,0,0,16.167,7.02Zm-10-1.187a4.167,4.167,0,1,1,8.333,0v.833H6.167ZM17,15.833a2.5,2.5,0,0,1-2.5,2.5H6.167a2.5,2.5,0,0,1-2.5-2.5v-5a2.5,2.5,0,0,1,2.5-2.5H14.5a2.5,2.5,0,0,1,2.5,2.5Z" fill="#fab75a"/>
    <path id="Path_10691" data-name="Path 10691" d="M11.842,14a.842.842,0,0,0-.842.842v1.684a.842.842,0,1,0,1.684,0V14.842A.842.842,0,0,0,11.842,14Z" transform="translate(-1.508 -2.357)" fill="#fab75a"/>
  </g>
</svg>
