<svg xmlns="http://www.w3.org/2000/svg" width="14" height="12.88" viewBox="0 0 14 12.88">
  <g id="comment" transform="translate(-0.001 1.332)">
    <path id="Path_10460" data-name="Path 10460" d="M12.076-1.332H1.925A1.927,1.927,0,0,0,0,.593V6.8A1.927,1.927,0,0,0,1.919,8.729v2.819L5.97,8.729h6.106A1.927,1.927,0,0,0,14,6.8V.593a1.927,1.927,0,0,0-1.925-1.925ZM13.18,6.8a1.106,1.106,0,0,1-1.1,1.1H5.712L2.739,9.978V7.909H1.925a1.106,1.106,0,0,1-1.1-1.1V.593a1.106,1.106,0,0,1,1.1-1.1h10.15a1.106,1.106,0,0,1,1.1,1.1Zm0,0" fill="#999"/>
    <path id="Path_10461" data-name="Path 10461" d="M171.293,131.172H177.8v.82h-6.506Zm0,0" transform="translate(-167.545 -129.606)" fill="#999"/>
    <path id="Path_10462" data-name="Path 10462" d="M171.293,211.172H177.8v.82h-6.506Zm0,0" transform="translate(-167.545 -207.856)" fill="#999"/>
    <path id="Path_10463" data-name="Path 10463" d="M171.293,291.172H177.8v.82h-6.506Zm0,0" transform="translate(-167.545 -286.106)" fill="#999"/>
  </g>
</svg>
