<svg xmlns="http://www.w3.org/2000/svg" width="9.948" height="10" viewBox="0 0 9.948 10">
  <g id="copy-svgrepo-com" transform="translate(-1.203)">
    <g id="Group_14847" data-name="Group 14847" transform="translate(1.203)">
      <g id="Group_14846" data-name="Group 14846" transform="translate(0)">
        <path id="Path_10722" data-name="Path 10722" d="M145.04,0h-5.528a.715.715,0,0,0-.714.714V2.391h.652V.714a.062.062,0,0,1,.062-.062h5.528a.062.062,0,0,1,.062.062V6.242a.062.062,0,0,1-.062.062h-1.625v.652h1.625a.715.715,0,0,0,.714-.714V.714A.715.715,0,0,0,145.04,0Z" transform="translate(-135.807)" fill="#fff"/>
        <path id="Path_10723" data-name="Path 10723" d="M7.445,140H1.917a.715.715,0,0,0-.714.714v5.528a.715.715,0,0,0,.714.714H7.445a.715.715,0,0,0,.714-.714v-5.528A.715.715,0,0,0,7.445,140Zm0,6.3H1.917a.062.062,0,0,1-.062-.062v-5.528a.062.062,0,0,1,.062-.062H7.445a.062.062,0,0,1,.062.062v5.528h0A.062.062,0,0,1,7.445,146.3Z" transform="translate(-1.203 -136.955)" fill="#fff"/>
      </g>
    </g>
  </g>
</svg>
