<svg xmlns="http://www.w3.org/2000/svg" width="20.604" height="22.479" viewBox="0 0 20.604 22.479">
  <g id="exit" transform="translate(-21.35 0)">
    <path id="Path_10480" data-name="Path 10480" d="M72.914,11.245a1.4,1.4,0,0,1,0-2.81h5.151V2.347A2.341,2.341,0,0,0,75.724.006H64.485a.468.468,0,0,0-.468.468V19.206a.468.468,0,0,0,.468.468H75.724a2.341,2.341,0,0,0,2.341-2.341V11.245Z" transform="translate(-40.794 -0.006)" fill="#b3b5b9"/>
    <path id="Path_10481" data-name="Path 10481" d="M29.49,2.444,24.17.164a2.023,2.023,0,0,0-2.82,1.858V18.175a2.02,2.02,0,0,0,1.226,1.859l5.32,2.281a2.023,2.023,0,0,0,2.82-1.859V4.3A2.02,2.02,0,0,0,29.49,2.444Z" transform="translate(0 0)" fill="#c2c4ca"/>
    <path id="Path_10482" data-name="Path 10482" d="M171.151,237.481a.468.468,0,0,1-.468-.468v-1.873a.468.468,0,0,1,.937,0v1.873A.468.468,0,0,1,171.151,237.481Z" transform="translate(-142.777 -224.369)" fill="#c2c4ca"/>
    <path id="Path_10483" data-name="Path 10483" d="M266.284,152.91a.468.468,0,0,0-.1-.51l-2.81-2.81a.468.468,0,0,0-.662.662l2.011,2.011h-8.235a.468.468,0,0,0,0,.937h8.235l-2.01,2.01a.468.468,0,0,0,.651.674l.011-.012,2.81-2.81A.469.469,0,0,0,266.284,152.91Z" transform="translate(-224.365 -142.897)" fill="#c2c4ca"/>
    <path id="Path_10484" data-name="Path 10484" d="M171.151,237.481a.468.468,0,0,1-.468-.468v-1.873a.468.468,0,0,1,.937,0v1.873A.468.468,0,0,1,171.151,237.481Z" transform="translate(-142.777 -224.369)" fill="#c2c4ca"/>
  </g>
</svg>
