<svg xmlns="http://www.w3.org/2000/svg" width="19.605" height="19.9" viewBox="0 0 19.605 19.9">
  <path id="Settings" d="M11.84,19.9h-4a.456.456,0,0,1-.5-.4l-.4-2.6-.016-.008A9.553,9.553,0,0,1,5.239,15.9l-2.5,1a.758.758,0,0,1-.238.041.5.5,0,0,1-.362-.141l-2-3.5a.474.474,0,0,1,.1-.6l2.1-1.7a3.064,3.064,0,0,1-.1-1,3.582,3.582,0,0,1,.055-.572A2.826,2.826,0,0,0,2.339,9L.239,7.4A.777.777,0,0,1,0,6.918.162.162,0,0,1,.04,6.8l2-3.5a.656.656,0,0,1,.478-.24A.7.7,0,0,1,2.74,3.1l2.4,1c.122-.082.241-.163.356-.243A5.51,5.51,0,0,1,6.839,3.1L7.24.4c0-.193.293-.4.5-.4h4a.473.473,0,0,1,.354.187A.335.335,0,0,1,12.139.5l.4,2.6.011.005a9.473,9.473,0,0,1,1.689,1l2.5-1a.754.754,0,0,1,.238-.041.5.5,0,0,1,.363.142l2,3.5a.469.469,0,0,1-.1.6L17.14,9a3.064,3.064,0,0,1,.1,1,3.581,3.581,0,0,1-.055.573A2.818,2.818,0,0,0,17.14,11l2.3,1.6c.191.1.206.387.1.6l-2,3.5a.48.48,0,0,1-.423.239.4.4,0,0,1-.177-.039l-2.5-1a9.554,9.554,0,0,1-1.684.992l-.016.008-.4,2.6C12.339,19.693,12.046,19.9,11.84,19.9ZM9.739,6.5a3.5,3.5,0,1,0,3.5,3.5A3.547,3.547,0,0,0,9.739,6.5Z" transform="translate(0)" fill="#c2c4ca"/>
</svg>
