<svg xmlns="http://www.w3.org/2000/svg" width="19.063" height="21.689" viewBox="0 0 19.063 21.689">
  <g id="user" transform="translate(-31)">
    <g id="Group_4022" data-name="Group 4022" transform="translate(34.813)">
      <g id="Group_4021" data-name="Group 4021">
        <path id="Path_10478" data-name="Path 10478" d="M126.719,0a5.719,5.719,0,1,0,5.719,5.719A5.725,5.725,0,0,0,126.719,0Z" transform="translate(-121)" fill="#c2c4ca"/>
      </g>
    </g>
    <g id="Group_4024" data-name="Group 4024" transform="translate(31 12.708)">
      <g id="Group_4023" data-name="Group 4023">
        <path id="Path_10479" data-name="Path 10479" d="M47.646,302.465A8.152,8.152,0,0,0,41.8,300H39.26a8.152,8.152,0,0,0-5.844,2.465A8.334,8.334,0,0,0,31,308.345a.635.635,0,0,0,.635.635H49.427a.635.635,0,0,0,.635-.635A8.334,8.334,0,0,0,47.646,302.465Z" transform="translate(-31 -300)" fill="#c2c4ca"/>
      </g>
    </g>
  </g>
</svg>
