<svg xmlns="http://www.w3.org/2000/svg" width="14.188" height="12.623" viewBox="0 0 14.188 12.623">
  <path id="heart" d="M13.063,1.235A3.815,3.815,0,0,0,10.225,0,3.569,3.569,0,0,0,8,.77a4.561,4.561,0,0,0-.9.941,4.558,4.558,0,0,0-.9-.941A3.569,3.569,0,0,0,3.964,0,3.815,3.815,0,0,0,1.126,1.235,4.435,4.435,0,0,0,0,4.264,5.281,5.281,0,0,0,1.408,7.721,30.007,30.007,0,0,0,4.93,11.027c.488.416,1.041.888,1.616,1.39a.833.833,0,0,0,1.1,0c.574-.5,1.128-.974,1.616-1.39a29.99,29.99,0,0,0,3.522-3.306,5.28,5.28,0,0,0,1.407-3.457,4.434,4.434,0,0,0-1.126-3.028Zm0,0" transform="translate(-0.001)" fill="#d8d8d8"/>
</svg>
