<svg id="download" xmlns="http://www.w3.org/2000/svg" width="20" height="20" viewBox="0 0 20 20">
  <path id="Path_10730" data-name="Path 10730" d="M138.9,15.115a2.5,2.5,0,0,0,3.539,0h0l2.678-2.678a.834.834,0,0,0-1.179-1.177L141.5,13.7,141.5.834A.834.834,0,0,0,140.667,0h0a.834.834,0,0,0-.834.834l-.007,12.851L137.4,11.26a.834.834,0,0,0-1.179,1.18Z" transform="translate(-130.667)" fill="#4179e0"/>
  <path id="Path_10731" data-name="Path 10731" d="M19.167,341.333h0a.834.834,0,0,0-.833.834V345.5a.834.834,0,0,1-.833.834H2.5a.834.834,0,0,1-.833-.834v-3.336a.834.834,0,0,0-.833-.834h0a.834.834,0,0,0-.833.834V345.5a2.5,2.5,0,0,0,2.5,2.5h15a2.5,2.5,0,0,0,2.5-2.5v-3.336A.834.834,0,0,0,19.167,341.333Z" transform="translate(0 -328.006)" fill="#4179e0"/>
</svg>
