<svg xmlns="http://www.w3.org/2000/svg" width="20" height="20" viewBox="0 0 20 20">
  <path id="pencil" d="M19.114.975a3.033,3.033,0,0,0-4.286,0l-13.6,13.6A4.155,4.155,0,0,0,0,17.534v1.717a.836.836,0,0,0,.836.836H2.554A4.154,4.154,0,0,0,5.51,18.863l13.6-13.6a3.033,3.033,0,0,0,0-4.285ZM4.328,17.681a2.528,2.528,0,0,1-1.774.734H1.673v-.881a2.492,2.492,0,0,1,.735-1.774L12.732,5.437,14.655,7.36Zm13.6-13.6-2.1,2.1-1.924-1.92,2.1-2.1a1.359,1.359,0,0,1,1.92,1.924Z" transform="translate(0 -0.088)" fill="#6dbea3"/>
</svg>
