<svg id="Group_12287" data-name="Group 12287" xmlns="http://www.w3.org/2000/svg" width="24.292" height="24.11" viewBox="0 0 24.292 24.11">
  <g id="edit_1_" transform="translate(0 0)">
    <path id="Path_43_1_" d="M34.239,25.8a.624.624,0,0,0-.639.639V32.1a1.871,1.871,0,0,1-1.916,1.916H13.893A1.871,1.871,0,0,1,11.977,32.1V15.493a1.871,1.871,0,0,1,1.916-1.916H19.55a.639.639,0,0,0,0-1.277H13.893A3.233,3.233,0,0,0,10.7,15.493V32.1a3.233,3.233,0,0,0,3.193,3.193H31.776A3.233,3.233,0,0,0,34.969,32.1V26.442A.774.774,0,0,0,34.239,25.8Z" transform="translate(-10.7 -11.182)" fill="#333"/>
    <path id="Path_44_1_" d="M21.6,22.606,30.906,13.3l3.011,3.011-9.306,9.215Z" transform="translate(-11.655 -11.27)" fill="#333"/>
    <path id="Path_45_1_" d="M19.9,28.085l3.285-.912L20.812,24.8Z" transform="translate(-11.506 -12.278)" fill="#333"/>
    <path id="Path_46_1_" d="M35.72,11.554a1.6,1.6,0,0,0-2.281,0l-.639.639L35.811,15.2l.639-.639a1.6,1.6,0,0,0,0-2.281Z" transform="translate(-12.637 -11.075)" fill="#333"/>
  </g>
</svg>
