<svg xmlns="http://www.w3.org/2000/svg" width="251.216" height="200.622" viewBox="0 0 251.216 200.622">
  <g id="Group_14063" data-name="Group 14063" transform="translate(-18 0)">
    <g id="freepik--Shadow--inject-2" transform="translate(18 184.087)">
      <ellipse id="freepik--path--inject-2" cx="125.608" cy="8.268" rx="125.608" ry="8.268" fill="#f5f5f5"/>
    </g>
    <g id="freepik--Character--inject-2" transform="translate(127.824 0)">
      <path id="Path_10622" data-name="Path 10622" d="M207.911,197.554c-6.756-1.212-5.529,22.86-8.173,28.542s-19.186,20.311-19.186,20.311-7.179.6-8.319,1.19-1.271,4.806-.336,4.806,8.764.066,9.925-.562,1.767-3.1,1.767-3.1,17.382-10.181,20.968-18.8c2.994-7.187,5.8-19.61,6.573-24.014S209.62,197.868,207.911,197.554Z" transform="translate(-171.278 -163.75)" fill="#ebb376"/>
      <path id="Path_10623" data-name="Path 10623" d="M145.694,311.549s-4.243-4.243-11.174,1.344-10.6,13.292-22.444,9.246-29.944,7.3-33.6-.869c0,0,6.135-16.112,18.054-21.085S139.53,306.926,145.694,311.549Z" transform="translate(-37.91 -191.111)" fill="#444"/>
      <path id="Path_10624" data-name="Path 10624" d="M70.246,283.22c.11,2.651.38,8.457.9,14.432.679,7.983,1.789,16.272,3.476,17.784.168.153.365.329.584.5.825.679,2,1.578,3.455,2.644,3.652,2.68,9.093,6.42,14.972,10.407l2.469,1.687c4.382,2.965,8.947,6,13.146,8.764,1.643,1.1,3.235,2.191,4.747,3.148,7.15,4.725,12.416,8.121,12.416,8.121l-2.344,3.352a68.224,68.224,0,0,0-7.515-3.535h0c-1.38-.555-2.856-1.19-4.382-1.9-3.1-1.395-6.515-3.053-10.13-4.857-1.066-.533-2.191-1.074-3.25-1.636-7.917-4.01-16.411-8.6-23.371-13.081A73.4,73.4,0,0,1,65.068,321.3c-2.155-2.03-3.652-3.929-4.126-5.616a152.28,152.28,0,0,1-4.053-21.107c-.54-3.958-1-7.866-1.388-11.35Z" transform="translate(-1.842 -186.862)" fill="#ebb376"/>
      <path id="Path_10625" data-name="Path 10625" d="M48.006,373c-.526-.1-1.556,6.369-1.556,6.369s3.1,4.82,3.141,8.837,2.8,2.4,3.761-1.862,1.7-7.508,2.381-10.532S53.41,374.051,48.006,373Z" transform="translate(75.35 -211.071)" fill="#333"/>
      <path id="Path_10626" data-name="Path 10626" d="M120.88,266s.986,11.766,2.637,23.912a152.066,152.066,0,0,0,4.053,21.107c.5,1.687,1.972,3.586,4.126,5.616a73.4,73.4,0,0,0,10.349,7.793c1.234-3.579,2.337-7.3,3.221-10.466-1.461-1.066-2.629-1.965-3.455-2.644-.219-.175-.416-.351-.584-.5-1.687-1.512-2.8-9.8-3.476-17.784-.73-8.121-.957-15.936-.957-15.936Z" transform="translate(-68.449 -182.219)" opacity="0.2"/>
      <path id="Path_10627" data-name="Path 10627" d="M142.432,235.693l22.349-3.652c-.687.11-5.025-9.495-6.018-12.927-1.366-4.725-2.432-13.767-1.5-19.617v-.044a4.382,4.382,0,0,0-3.937-5c-1.782-.139-3.564-.2-5.361-.212a74.778,74.778,0,0,0-10.612.628c-4.528.73-9.641,2.081-9.641,2.081s-.73.3-.38,5.164C127.664,206.676,129.38,221.575,142.432,235.693Z" transform="translate(-92.608 -162.867)" fill="#d16d86"/>
      <path id="Path_10628" data-name="Path 10628" d="M151.52,186.805s2.878,1.862,3.374,3.089a1.368,1.368,0,0,1,.073.241,16.959,16.959,0,0,1,.292,2.118c-.84,2.461,2.308,3.871,2.308,3.871,5.609-1.687,6.924-4.419,6.924-4.419-4.616-1.811-5.5-10.656-5.5-10.656l-2.235,1.724Z" transform="translate(-110.052 -159.312)" fill="#ebb376"/>
      <path id="Path_10629" data-name="Path 10629" d="M123.864,346.832l5.879-13.1,7.99-17.791,1.417-3.1,6.186-13.5,7.355-16.068h16.8c-2.191,7.45-6.573,15.666-11.16,22.918-4.477,7.121-9.115,13.314-11.963,16.966-1.709,2.191-2.768,3.462-2.768,3.462a224.147,224.147,0,0,1-11.686,22.8c-1.687,2.921-3.352,5.689-4.944,8.253-5.843,9.495-10.546,16.111-10.546,16.111l-3.652-2.191Z" transform="translate(-86.749 -186.876)" fill="#ebb376"/>
      <path id="Path_10630" data-name="Path 10630" d="M199.823,403.6c.2-.489-5.945-2.746-5.945-2.746s-5.332,2.118-9.275,1.38-2.921,2.286,1.1,4.053l9.882,4.382C198.45,411.915,197.719,408.694,199.823,403.6Z" transform="translate(-167.732 -218.581)" fill="#333"/>
      <path id="Path_10631" data-name="Path 10631" d="M110.367,246s12.146,6.076,12.883,22.378c.438,9.027,22.729,28.885,22.729,28.885s-.92,3.272-7.2,3.462-18.032-6.741-26.293-4.813-7.515,5.01-14.067,3.652-13.285.351-19.646,7.413c0,0-2.87-23.371,9.378-40.739,0,0,.964-4.609-.11-16.572Z" transform="translate(-38.195 -176.826)" fill="#407bff"/>
      <path id="Path_10632" data-name="Path 10632" d="M110.367,246s12.146,6.076,12.883,22.378c.438,9.027,22.729,28.885,22.729,28.885s-.92,3.272-7.2,3.462-18.032-6.741-26.293-4.813-7.515,5.01-14.067,3.652-13.285.351-19.646,7.413c0,0-2.87-23.371,9.378-40.739,0,0,.964-4.609-.11-16.572Z" transform="translate(-38.195 -176.826)" fill="#263238"/>
      <path id="Path_10633" data-name="Path 10633" d="M146.318,244.34l-21.808,4.886.3,3.929,24.043-6.347Z" transform="translate(-74.687 -176.378)" fill="#666"/>
      <path id="Path_10634" data-name="Path 10634" d="M144.89,250.321a1.461,1.461,0,1,0,1.461-1.461A1.461,1.461,0,0,0,144.89,250.321Z" transform="translate(-88.53 -177.597)" fill="#263238"/>
      <path id="Path_10635" data-name="Path 10635" d="M159.535,187.193s2.878,1.862,3.374,3.089a1.365,1.365,0,0,1,.073.241,9.392,9.392,0,0,0,3.652-8.034l-1.87.635Z" transform="translate(-118.067 -159.7)" opacity="0.2"/>
      <path id="Path_10636" data-name="Path 10636" d="M176.98,172.758a.2.2,0,0,0,.131-.058.183.183,0,0,0,0-.256c-1.11-.957-4.492-4.506-1.358-9.721,2.71-4.521,8.377-3,8.436-2.987a.178.178,0,0,0,.095-.343c-.058,0-5.982-1.614-8.837,3.148-3.272,5.456.263,9.166,1.424,10.174A.2.2,0,0,0,176.98,172.758Z" transform="translate(-146.459 -153.401)" fill="#263238"/>
      <path id="Path_10637" data-name="Path 10637" d="M158.868,159.324s-4.74.146-6.047,4.148-.336,8.5,6.7,13.351,13,.19,15.768-3.06,2.052-13.993-5.624-16.068C161.665,155.475,158.868,159.324,158.868,159.324Z" transform="translate(-122.914 -152.828)" fill="#263238"/>
      <path id="Path_10638" data-name="Path 10638" d="M165.167,161.974c-6.025.818-7.523,4.309-7.121,10.583.5,7.837,2.98,13.146,10.291,10.429C178.262,179.349,175.18,160.616,165.167,161.974Z" transform="translate(-124.692 -154.149)" fill="#ebb376"/>
      <path id="Path_10639" data-name="Path 10639" d="M176.16,175.31a12.992,12.992,0,0,1-1.41,2.739,1.665,1.665,0,0,0,1.68.467Z" transform="translate(-138.957 -157.764)" fill="#d58745"/>
      <path id="Path_10640" data-name="Path 10640" d="M168.475,173.64c.058.5.372.869.73.833s.555-.475.5-.971-.365-.869-.73-.833S168.423,173.107,168.475,173.64Z" transform="translate(-127.649 -157.051)" fill="#263238"/>
      <path id="Path_10641" data-name="Path 10641" d="M170.412,172.527l-1.132-.307S169.886,173.067,170.412,172.527Z" transform="translate(-128.944 -156.931)" fill="#263238"/>
      <path id="Path_10642" data-name="Path 10642" d="M176.943,174.4c.058.5.372.869.73.833s.555-.475.5-.971-.365-.869-.694-.833S176.892,173.9,176.943,174.4Z" transform="translate(-142.303 -157.256)" fill="#263238"/>
      <path id="Path_10643" data-name="Path 10643" d="M178.882,173.337l-1.132-.307S178.393,173.877,178.882,173.337Z" transform="translate(-143.6 -157.149)" fill="#263238"/>
      <path id="Path_10644" data-name="Path 10644" d="M169.72,168.915a.248.248,0,0,0,.19-.08.263.263,0,0,0,0-.365,3.367,3.367,0,0,0-2.98-.613.257.257,0,0,0,.131.5,2.965,2.965,0,0,1,2.5.5A.248.248,0,0,0,169.72,168.915Z" transform="translate(-126.66 -155.722)" fill="#263238"/>
      <path id="Path_10645" data-name="Path 10645" d="M176.811,169.7a.255.255,0,0,0,.168-.066,2.6,2.6,0,0,1,2.111-.73.258.258,0,1,0,.11-.5,3.1,3.1,0,0,0-2.564.884.256.256,0,0,0,.175.453Z" transform="translate(-143.237 -155.895)" fill="#263238"/>
      <path id="Path_10646" data-name="Path 10646" d="M171.6,170.305s-3.5-4.572-3.586-8.45c0,0-12.613-3.25-11.547,8.954,0,0-2.637-10.6,7.691-12.255s12.35,13.5,7.618,18.755C171.771,177.309,173.757,173.161,171.6,170.305Z" transform="translate(-123.145 -153.212)" fill="#263238"/>
      <path id="Path_10647" data-name="Path 10647" d="M154.927,175.577a2.658,2.658,0,0,1,2.512-2.8c1.9-.051,3.308,3.652-1.212,5.215C155.577,178.214,155.117,177.615,154.927,175.577Z" transform="translate(-107.287 -157.082)" fill="#ebb376"/>
      <path id="Path_10648" data-name="Path 10648" d="M127.24,157.4a8.428,8.428,0,0,1,4-5.2c3.455-2.118,7.216-.774,10.393,6.259s7.8,5.492,9.823,3.754c0,0-.672,3.367-5.4,4.762s-7.413-1-9.626-4.952a4.74,4.74,0,0,0-6.106-2.191Z" transform="translate(-79.286 -151.286)" fill="#263238"/>
      <path id="Path_10649" data-name="Path 10649" d="M168.508,181.815a15.446,15.446,0,0,1,.606,2.191,3.833,3.833,0,0,0,.409,0c1.819-.08,2.629-.73,2.987-1.41a2.286,2.286,0,0,0,.234-1.081,2.074,2.074,0,0,0-.08-.635,8.566,8.566,0,0,1-3.535.906C168.735,181.815,168.508,181.815,168.508,181.815Z" transform="translate(-130.714 -159.266)" fill="#263238"/>
      <path id="Path_10650" data-name="Path 10650" d="M168.509,181.776l.2.643c1.716-.08,2.921-.372,3.418-.913a2.073,2.073,0,0,0-.08-.635A8.566,8.566,0,0,1,168.509,181.776Z" transform="translate(-130.093 -159.263)" fill="#fff"/>
      <path id="Path_10651" data-name="Path 10651" d="M168.83,184.63c1.819-.08,2.629-.73,2.987-1.41a6.048,6.048,0,0,0-2,.5A2.191,2.191,0,0,0,168.83,184.63Z" transform="translate(-130.02 -159.897)" fill="#de5753"/>
      <path id="Path_10652" data-name="Path 10652" d="M152.926,171.171a.168.168,0,0,0,.168-.124.19.19,0,0,0-.11-.226c-2.3-.774-3.272-2.921-4.214-4.952a11.159,11.159,0,0,0-2.191-3.652c-2.52-2.359-4.521-.438-4.543-.416a.183.183,0,0,0,.256.256c.073-.073,1.782-1.7,4.046.424a11.116,11.116,0,0,1,2.133,3.5c.971,2.125,1.979,4.324,4.419,5.149Z" transform="translate(-91.709 -153.917)" fill="#263238"/>
      <path id="Path_10656" data-name="Path 10656" d="M176.464,166.435l-4.85-9.2a93.779,93.779,0,0,0-11.912,1.285s-1.87,1.461-.825,2.432,3.287.27,3.937-.285a4.382,4.382,0,0,0,.986-1.928l1.161-.146s-1.081,2.417.621,2.359,4.835-1.132,5.441-2.724l5.273,9.334Z" transform="translate(-127.166 -152.891)" fill="#666"/>
      <path id="Path_10657" data-name="Path 10657" d="M182.239,195.213c-8.3-1.271-9.056,24.394-12.306,30.361S146.364,246.9,146.364,246.9s-6.624-.621-8.034,0-1.556,5.047-.409,5.047,8.552,1.322,10,.665,2.191-3.257,2.191-3.257,21.355-10.692,25.759-19.719c3.652-7.544,7.121-20.6,8.1-25.226S184.342,195.535,182.239,195.213Z" transform="translate(-119.496 -163.119)" fill="#ebb376"/>
      <path id="Path_10658" data-name="Path 10658" d="M167.362,213.5l-4.156,7.924a1.052,1.052,0,0,1-1.775.139l-5.215-7.092a1.044,1.044,0,0,1,.73-1.665l9.392-.811a1.052,1.052,0,0,1,1.022,1.5Z" transform="translate(-116.304 -167.657)" fill="#666"/>
      <path id="Path_10659" data-name="Path 10659" d="M167.1,217.88v.241a1.059,1.059,0,0,1-1.008,1.059l-9.684.46a1.059,1.059,0,0,1-1.1-.891h0a1.044,1.044,0,0,1,.964-1.22l9.692-.73a1.052,1.052,0,0,1,1.132,1.081Z" transform="translate(-115.424 -168.951)" fill="#999"/>
    </g>
    <g id="freepik--Cart--inject-2" transform="translate(45.914 86.272)">
      <path id="Path_10669" data-name="Path 10669" d="M175.17,286.135a1.8,1.8,0,0,0,1-.3l18.814-12.416a2.125,2.125,0,0,1,1.183-.358h34.874l-12.379,9.845a1.826,1.826,0,1,0,2.271,2.856l16.469-13.1a1.826,1.826,0,0,0-1.139-3.257h-40.1a5.733,5.733,0,0,0-3.2.964L174.155,282.79a1.826,1.826,0,0,0,1.008,3.345Z" transform="translate(-117.684 -269.41)" fill="#407bff"/>
      <g id="Group_14059" data-name="Group 14059" transform="translate(55.658 0)">
        <path id="Path_10670" data-name="Path 10670" d="M175.17,286.135a1.8,1.8,0,0,0,1-.3l18.814-12.416a2.125,2.125,0,0,1,1.183-.358h34.874l-12.379,9.845a1.826,1.826,0,1,0,2.271,2.856l16.469-13.1a1.826,1.826,0,0,0-1.139-3.257h-40.1a5.733,5.733,0,0,0-3.2.964L174.155,282.79a1.826,1.826,0,0,0,1.008,3.345Z" transform="translate(-173.342 -269.41)" fill="#333"/>
      </g>
      <path id="Path_10680" data-name="Path 10680" d="M323.783,406.416c1.271-2.191,4.521-2.7,7.252-1.125s3.922,4.652,2.615,6.843-4.514,2.7-7.245,1.117S322.52,408.615,323.783,406.416Z" transform="translate(-323.272 -305.803)" fill="#263238"/>
      <path id="Path_10681" data-name="Path 10681" d="M247.01,405.291c2.732,1.585,3.922,4.645,2.651,6.843s-4.514,2.7-7.245,1.117-3.922-4.638-2.658-6.836S244.278,403.713,247.01,405.291Z" transform="translate(-177.897 -305.803)" fill="#263238"/>
      <path id="Path_10682" data-name="Path 10682" d="M247.233,393.325h59.531a1.826,1.826,0,0,0,0-3.652H247.233a1.11,1.11,0,0,1-1.11-1.11v-4.74a1.117,1.117,0,0,1,.876-1.081l49.226-10.648a9.677,9.677,0,0,0,7.618-9.407v-9.261a1.826,1.826,0,0,0-3.652,0v9.261a6,6,0,0,1-4.7,5.843l-49.233,10.649a4.791,4.791,0,0,0-3.754,4.652v4.74A4.769,4.769,0,0,0,247.233,393.325Z" transform="translate(-238.687 -291.573)" fill="#407bff"/>
      <g id="Group_14061" data-name="Group 14061" transform="translate(3.813 60.027)">
        <path id="Path_10683" data-name="Path 10683" d="M247.233,393.325h59.531a1.826,1.826,0,0,0,0-3.652H247.233a1.11,1.11,0,0,1-1.11-1.11v-4.74a1.117,1.117,0,0,1,.876-1.081l49.226-10.648a9.677,9.677,0,0,0,7.618-9.407v-9.261a1.826,1.826,0,0,0-3.652,0v9.261a6,6,0,0,1-4.7,5.843l-49.233,10.649a4.791,4.791,0,0,0-3.754,4.652v4.74A4.769,4.769,0,0,0,247.233,393.325Z" transform="translate(-242.5 -351.6)" fill="#333"/>
      </g>
      <path id="Path_10684" data-name="Path 10684" d="M239.021,312.9v-.124l-2.133-11.788h0l-2.191-12.1a1.833,1.833,0,0,1,1.8-2.147h23.189a1.826,1.826,0,1,1,0,3.652h-6.646l1.169,8.414h50.014a1.826,1.826,0,1,1,0,3.652H254.68l1.147,8.216h45.362a1.826,1.826,0,0,1,0,3.652H256.374l1.183,8.479h40.71a1.826,1.826,0,0,1,0,3.652H258.1l1.066,7.669h4.725a1.826,1.826,0,0,1,0,3.652h-18.85a1.833,1.833,0,0,1-1.8-1.5L241.2,325h0Zm3.309-2.242h2.542l-1.461-8.216H240.8Zm.657,3.652,1.534,8.479H247l-1.461-8.479Zm-2.8-15.52h2.607l-1.461-8.414h-2.651Zm9.166-8.414h-4.331l1.461,8.414H250.5Zm1.68,12.065h-3.893l1.461,8.216h3.593Zm1.658,11.868h-3.462l1.461,8.479h3.162Zm1.694,12.131h-3.031l1.344,7.669h2.717Zm-5.39,7.669-1.351-7.669h-2.454l1.388,7.669Z" transform="translate(-230.424 -274.083)" fill="#407bff"/>
      <g id="Group_14062" data-name="Group 14062" transform="translate(4.246 12.657)">
        <path id="Path_10685" data-name="Path 10685" d="M239.021,312.9v-.124l-2.133-11.788h0l-2.191-12.1a1.833,1.833,0,0,1,1.8-2.147h23.189a1.826,1.826,0,1,1,0,3.652h-6.646l1.169,8.414h50.014a1.826,1.826,0,1,1,0,3.652H254.68l1.147,8.216h45.362a1.826,1.826,0,0,1,0,3.652H256.374l1.183,8.479h40.71a1.826,1.826,0,0,1,0,3.652H258.1l1.066,7.669h4.725a1.826,1.826,0,0,1,0,3.652h-18.85a1.833,1.833,0,0,1-1.8-1.5L241.2,325h0Zm3.309-2.242h2.542l-1.461-8.216H240.8Zm.657,3.652,1.534,8.479H247l-1.461-8.479Zm-2.8-15.52h2.607l-1.461-8.414h-2.651Zm9.166-8.414h-4.331l1.461,8.414H250.5Zm1.68,12.065h-3.893l1.461,8.216h3.593Zm1.658,11.868h-3.462l1.461,8.479h3.162Zm1.694,12.131h-3.031l1.344,7.669h2.717Zm-5.39,7.669-1.351-7.669h-2.454l1.388,7.669Z" transform="translate(-234.67 -286.74)" fill="#333"/>
      </g>
      <path id="Path_10686" data-name="Path 10686" d="M194.313,287.311a1.811,1.811,0,0,1,1.344-.592H269.97a1.848,1.848,0,0,1,1.461.687,1.826,1.826,0,0,1,.351,1.541l-2.739,12.029h0l-8.034,35.349a1.826,1.826,0,0,1-1.782,1.461H199.879a1.833,1.833,0,0,1-1.819-1.665l-4.178-47.385A1.818,1.818,0,0,1,194.313,287.311Zm6.208,35.473h8.472l-.372-8.472h-8.852Zm47.02,11.32.993-7.669h-9.122l-.555,7.669Zm-10.649-23.444.6-8.224H225.463v8.224Zm-11.43,3.652v8.472h10.554l.613-8.472Zm-3.652-11.875H211.754l.358,8.224h9.7Zm0-3.652v-8.414h-10.59l.372,8.414Zm3.652,0h12.292l.606-8.414h-12.9Zm15.951,0h10.692l1.088-8.414H242.027Zm-.263,3.652-.592,8.224h9.991l1.066-8.224Zm13.1,8.224h8.815l1.87-8.224h-9.619Zm7.983,3.652h-8.45l-1.1,8.472h7.618Zm-12.138,0h-9.809l-.613,8.472H249Zm-14.344,12.124H225.463V334.1h9.75Zm-13.942,0h-9l.336,7.669h8.662Zm0-3.652v-8.472h-9.538l.372,8.472ZM208.46,310.661l-.365-8.224h-9.4l.73,8.224ZM198.4,298.785H207.9l-.372-8.414h-9.9Zm58.472-8.414-1.088,8.414h9.984l1.914-8.414Zm2.607,36.065h-7.267l-.993,7.669h6.515ZM209.49,334.1l-.336-7.669h-8.311l.672,7.669Z" transform="translate(-166.406 -274.078)" fill="#555"/>
      <path id="Path_10687" data-name="Path 10687" d="M207.233,393.325h59.531a1.826,1.826,0,0,0,0-3.652H207.233a1.11,1.11,0,0,1-1.11-1.11v-4.74a1.117,1.117,0,0,1,.876-1.081l49.226-10.648a9.677,9.677,0,0,0,7.618-9.407v-9.261a1.826,1.826,0,0,0-3.652,0v9.261a6,6,0,0,1-4.7,5.843l-49.233,10.649a4.791,4.791,0,0,0-3.754,4.652v4.74A4.769,4.769,0,0,0,207.233,393.325Z" transform="translate(-169.473 -291.573)" fill="#555"/>
      <ellipse id="Ellipse_304" data-name="Ellipse 304" cx="5.719" cy="4.594" rx="5.719" ry="4.594" transform="translate(40.257 110.308) rotate(-150)" fill="#263238"/>
      <path id="Path_10688" data-name="Path 10688" d="M281.853,408.568a2.87,2.87,0,1,0,3.557-.555A2.563,2.563,0,0,0,281.853,408.568Z" transform="translate(-245.62 -306.662)" fill="#fff"/>
      <ellipse id="Ellipse_305" data-name="Ellipse 305" cx="5.719" cy="4.594" rx="5.719" ry="4.594" transform="translate(101.603 110.308) rotate(-150)" fill="#263238"/>
      <path id="Path_10689" data-name="Path 10689" d="M197.852,408.568a2.87,2.87,0,1,0,3.557-.555A2.563,2.563,0,0,0,197.852,408.568Z" transform="translate(-100.27 -306.662)" fill="#fff"/>
    </g>
  </g>
</svg>
