<svg xmlns="http://www.w3.org/2000/svg" width="10.489" height="19.401" viewBox="0 0 10.489 19.401">
  <g id="facebook-logo" transform="translate(-22.077)">
    <path id="Path_10526" data-name="Path 10526" d="M32.171,0,29.655,0A4.418,4.418,0,0,0,25,4.775v2.2h-2.53a.4.4,0,0,0-.4.4v3.19a.4.4,0,0,0,.4.4H25v8.049a.4.4,0,0,0,.4.4h3.3a.4.4,0,0,0,.4-.4V10.957h2.958a.4.4,0,0,0,.4-.4V7.372a.4.4,0,0,0-.4-.4H29.094V5.11c0-.9.214-1.352,1.382-1.352h1.695a.4.4,0,0,0,.4-.4V.4A.4.4,0,0,0,32.171,0Z" fill="#0072ee"/>
  </g>
</svg>
