<svg xmlns="http://www.w3.org/2000/svg" width="22.762" height="20" viewBox="0 0 22.762 20">
  <path id="heart" d="M16.591,1.917a6.067,6.067,0,0,0-5.214,3.129A6.067,6.067,0,0,0,6.162,1.917,6.447,6.447,0,0,0,0,8.6c0,4.311,4.537,9.019,8.343,12.211a4.716,4.716,0,0,0,6.067,0c3.805-3.192,8.343-7.9,8.343-12.211a6.447,6.447,0,0,0-6.162-6.684Zm-3.4,17.444a2.819,2.819,0,0,1-3.631,0C4.69,15.274,1.9,11.353,1.9,8.6A4.551,4.551,0,0,1,6.162,3.813,4.551,4.551,0,0,1,10.428,8.6a.948.948,0,1,0,1.9,0,4.551,4.551,0,0,1,4.266-4.788A4.551,4.551,0,0,1,20.857,8.6c0,2.752-2.794,6.673-7.665,10.757Z" transform="translate(0.005 -1.917)" fill="#d16d86"/>
</svg>
