<svg xmlns="http://www.w3.org/2000/svg" width="26.576" height="34.163" viewBox="0 0 26.576 34.163">
  <g id="Female" transform="translate(-5.15 -2.15)">
    <path id="Path_10434" data-name="Path 10434" d="M25.857,15.219a7.577,7.577,0,0,1-3.731,6.468h0a4.816,4.816,0,0,0,3.358,4.6h0a7.324,7.324,0,0,1,4.975,5.721l.249,1.119a.73.73,0,0,1-.622.871H6.827a.678.678,0,0,1-.622-.871l.249-1.119a7.742,7.742,0,0,1,4.975-5.721h0a4.816,4.816,0,0,0,3.358-4.6h0a8,8,0,0,1-3.731-6.716V9" transform="translate(0.044 1.463)" fill="none" stroke="#333" stroke-linecap="round" stroke-linejoin="round" stroke-miterlimit="10" stroke-width="1.7"/>
    <path id="Path_10435" data-name="Path 10435" d="M8.861,29.244A29.448,29.448,0,0,1,6,16.682C6,7.1,11.6,3,18.438,3S30.876,7.1,30.876,16.682a29.448,29.448,0,0,1-2.861,12.562" fill="none" stroke="#333" stroke-linejoin="round" stroke-miterlimit="10" stroke-width="1.7"/>
    <path id="Path_10436" data-name="Path 10436" d="M30.269,15.45a22.893,22.893,0,0,1-5.1.622C16.587,16.072,9.5,11.346,9,5.5" transform="translate(0.731 0.609)" fill="none" stroke="#333" stroke-linejoin="round" stroke-miterlimit="10" stroke-width="1.7"/>
  </g>
</svg>
