<svg xmlns="http://www.w3.org/2000/svg" width="18.352" height="18.765" viewBox="0 0 18.352 18.765">
  <path id="filter" d="M17.361,0H1.255A.757.757,0,0,0,.58.411a.767.767,0,0,0,.06.8l5.9,8.312.006.008a1.686,1.686,0,0,1,.331,1v6.777a.753.753,0,0,0,.754.758.776.776,0,0,0,.3-.059l3.316-1.264a.718.718,0,0,0,.494-.709v-5.5a1.686,1.686,0,0,1,.331-1l.006-.008,5.9-8.312a.767.767,0,0,0,.06-.8A.757.757,0,0,0,17.361,0ZM11.33,8.986a2.61,2.61,0,0,0-.509,1.544v5.391L7.795,17.075V10.53a2.609,2.609,0,0,0-.509-1.544L1.557.917h15.5Zm0,0" transform="translate(-0.132 0.35)" fill="#333" stroke="#333" stroke-width="0.7"/>
</svg>
