<svg xmlns="http://www.w3.org/2000/svg" width="38" height="24.958" viewBox="0 0 38 24.958">
  <g id="console" transform="translate(0 -55.109)">
    <g id="Group_2010" data-name="Group 2010" transform="translate(0 55.109)">
      <g id="Group_2009" data-name="Group 2009" transform="translate(0 0)">
        <path id="Path_10438" data-name="Path 10438" d="M37.98,72.37a35.471,35.471,0,0,0-1.041-6.863,26.341,26.341,0,0,0-2.13-5.774C31.5,53.911,27.9,54.81,23.592,55.946a30.83,30.83,0,0,1-4.354.852h-.473a30.831,30.831,0,0,1-4.354-.852c-4.307-1.089-7.9-2.035-11.217,3.834a24.129,24.129,0,0,0-2.13,5.774A35.471,35.471,0,0,0,.021,72.417a12.9,12.9,0,0,0,.663,5.4,3.587,3.587,0,0,0,2.272,2.13,4.628,4.628,0,0,0,3.029-.331A22.247,22.247,0,0,0,12.043,75.3c1.467-1.42,4.212-2.13,6.958-2.13s5.49.71,6.958,2.13a22.247,22.247,0,0,0,6.058,4.307,4.951,4.951,0,0,0,3.029.331,3.537,3.537,0,0,0,2.272-2.177A12.655,12.655,0,0,0,37.98,72.37ZM35.708,77.1a1.877,1.877,0,0,1-1.136,1.183,3.268,3.268,0,0,1-1.941-.237,19.3,19.3,0,0,1-5.49-3.928c-1.8-1.8-4.97-2.7-8.141-2.7s-6.342.9-8.188,2.6a19.667,19.667,0,0,1-5.49,3.928,2.936,2.936,0,0,1-1.941.237,1.877,1.877,0,0,1-1.136-1.183,11.192,11.192,0,0,1-.473-4.544,32.648,32.648,0,0,1,.994-6.532,22.584,22.584,0,0,1,1.988-5.348c2.6-4.686,5.632-3.928,9.229-2.982a27.764,27.764,0,0,0,4.638.9h.71a27.421,27.421,0,0,0,4.686-.9c3.6-.9,6.626-1.7,9.229,2.982a21.825,21.825,0,0,1,1.988,5.348,35.824,35.824,0,0,1,.994,6.532A10.952,10.952,0,0,1,35.708,77.1Z" transform="translate(0 -55.109)" fill="#333"/>
      </g>
    </g>
    <g id="Group_2012" data-name="Group 2012" transform="translate(4.896 59.827)">
      <g id="Group_2011" data-name="Group 2011">
        <path id="Path_10439" data-name="Path 10439" d="M51.123,98.294a2.876,2.876,0,0,0-1.7-.8,2.693,2.693,0,0,0-.757-1.657l-.047-.047a2.681,2.681,0,0,0-1.941-.8,2.8,2.8,0,0,0-1.941.8,2.751,2.751,0,0,0-.8,1.7,2.82,2.82,0,0,0-1.7.757l-.047.047a2.681,2.681,0,0,0-.8,1.941,2.8,2.8,0,0,0,.8,1.941,2.639,2.639,0,0,0,1.751.8,2.525,2.525,0,0,0,.8,1.7,2.681,2.681,0,0,0,1.941.8,2.8,2.8,0,0,0,1.941-.8,2.876,2.876,0,0,0,.8-1.7,2.525,2.525,0,0,0,1.7-.8,2.681,2.681,0,0,0,.8-1.941A2.8,2.8,0,0,0,51.123,98.294Zm-1.183,2.651a.963.963,0,0,1-.71.284h-.663a.9.9,0,0,0-.9.9v.615a.994.994,0,1,1-1.988,0v-.663a.9.9,0,0,0-.9-.9h-.663a.971.971,0,0,1-.71-1.657l.047-.047a1.131,1.131,0,0,1,.663-.237h.663a.9.9,0,0,0,.9-.9v-.663a1,1,0,0,1,1.7-.71l.047.047a1.131,1.131,0,0,1,.237.663v.663a.9.9,0,0,0,.9.9h.663a1,1,0,0,1,.71,1.7Z" transform="translate(-41.373 -94.981)" fill="#333"/>
      </g>
    </g>
    <g id="Group_2014" data-name="Group 2014" transform="translate(25.579 60.064)">
      <g id="Group_2013" data-name="Group 2013" transform="translate(0 0)">
        <circle id="Ellipse_22" data-name="Ellipse 22" cx="1.657" cy="1.657" r="1.657" fill="#333"/>
      </g>
    </g>
    <g id="Group_2016" data-name="Group 2016" transform="translate(25.579 66.785)">
      <g id="Group_2015" data-name="Group 2015">
        <circle id="Ellipse_23" data-name="Ellipse 23" cx="1.657" cy="1.657" r="1.657" fill="#333"/>
      </g>
    </g>
    <g id="Group_2018" data-name="Group 2018" transform="translate(22.219 63.424)">
      <g id="Group_2017" data-name="Group 2017">
        <circle id="Ellipse_24" data-name="Ellipse 24" cx="1.657" cy="1.657" r="1.657" fill="#333"/>
      </g>
    </g>
    <g id="Group_2020" data-name="Group 2020" transform="translate(28.94 63.424)">
      <g id="Group_2019" data-name="Group 2019">
        <circle id="Ellipse_25" data-name="Ellipse 25" cx="1.657" cy="1.657" r="1.657" fill="#333"/>
      </g>
    </g>
  </g>
</svg>
