<svg id="Google" xmlns="http://www.w3.org/2000/svg" width="20.118" height="20.118" viewBox="0 0 20.118 20.118">
  <path id="Path_10521" data-name="Path 10521" d="M4.459,144.993l-.7,2.614-2.56.054a10.077,10.077,0,0,1-.074-9.393h0l2.279.418,1,2.265a6,6,0,0,0,.056,4.042Z" transform="translate(0 -132.835)" fill="#fbbb00"/>
  <path id="Path_10522" data-name="Path 10522" d="M271.29,208.176A10.055,10.055,0,0,1,267.7,217.9h0l-2.87-.146-.406-2.536a6,6,0,0,0,2.579-3.061h-5.379v-3.979h9.662Z" transform="translate(-251.348 -199.996)" fill="#518ef8"/>
  <path id="Path_10523" data-name="Path 10523" d="M45.666,315.154h0a10.062,10.062,0,0,1-15.158-3.077l3.26-2.668a5.983,5.983,0,0,0,8.621,3.063Z" transform="translate(-29.31 -297.251)" fill="#28b446"/>
  <path id="Path_10524" data-name="Path 10524" d="M43.979,2.316,40.72,4.984A5.982,5.982,0,0,0,31.9,8.116L28.625,5.433h0A10.061,10.061,0,0,1,43.979,2.316Z" transform="translate(-27.499)" fill="#f14336"/>
</svg>
