<svg xmlns="http://www.w3.org/2000/svg" width="18.54" height="16.495" viewBox="0 0 18.54 16.495">
  <path id="heart" d="M17.07,1.614A4.985,4.985,0,0,0,13.361,0a4.664,4.664,0,0,0-2.913,1.006,5.96,5.96,0,0,0-1.178,1.23,5.957,5.957,0,0,0-1.178-1.23A4.663,4.663,0,0,0,5.18,0,4.986,4.986,0,0,0,1.471,1.614,5.8,5.8,0,0,0,0,5.572a6.9,6.9,0,0,0,1.839,4.517,39.211,39.211,0,0,0,4.6,4.32c.638.544,1.361,1.16,2.111,1.816a1.088,1.088,0,0,0,1.433,0c.751-.656,1.474-1.273,2.112-1.817a39.189,39.189,0,0,0,4.6-4.32,6.9,6.9,0,0,0,1.839-4.517A5.8,5.8,0,0,0,17.07,1.614Zm0,0" transform="translate(0)" fill="#f4f4f4"/>
</svg>
