<svg xmlns="http://www.w3.org/2000/svg" width="19.5" height="17.133" viewBox="0 0 19.5 17.133">
  <path id="heart" d="M14.211,1.917A5.2,5.2,0,0,0,9.745,4.6a5.2,5.2,0,0,0-4.467-2.68A5.522,5.522,0,0,0,0,7.643c0,3.693,3.887,7.726,7.147,10.46a4.04,4.04,0,0,0,5.2,0c3.26-2.734,7.147-6.767,7.147-10.46a5.522,5.522,0,0,0-5.279-5.726ZM11.3,16.86a2.414,2.414,0,0,1-3.11,0C4.017,13.359,1.623,10,1.623,7.642a3.9,3.9,0,0,1,3.655-4.1,3.9,3.9,0,0,1,3.655,4.1.812.812,0,1,0,1.624,0,3.9,3.9,0,0,1,3.655-4.1,3.9,3.9,0,0,1,3.655,4.1c0,2.358-2.393,5.717-6.566,9.214Z" transform="translate(0.006 -1.917)" fill="#d16d86"/>
</svg>
