<svg xmlns="http://www.w3.org/2000/svg" width="21.87" height="19.623" viewBox="0 0 21.87 19.623">
  <path id="heart" d="M18.754,1.774A5.477,5.477,0,0,0,14.68,0a5.124,5.124,0,0,0-3.2,1.1,6.548,6.548,0,0,0-1.294,1.351A6.545,6.545,0,0,0,8.891,1.1,5.124,5.124,0,0,0,5.691,0,5.478,5.478,0,0,0,1.616,1.774,6.367,6.367,0,0,0,0,6.122a7.582,7.582,0,0,0,2.02,4.963,43.081,43.081,0,0,0,5.057,4.747c.7.6,1.5,1.274,2.32,2a1.2,1.2,0,0,0,1.575,0c.825-.721,1.62-1.4,2.321-2a43.057,43.057,0,0,0,5.057-4.747,7.581,7.581,0,0,0,2.02-4.963,6.367,6.367,0,0,0-1.616-4.348Zm0,0" transform="translate(0.75 0.75)" fill="none" stroke="#666" stroke-width="1.5"/>
</svg>
