<svg xmlns="http://www.w3.org/2000/svg" width="8.5" height="24.218" viewBox="0 0 8.5 24.218">
  <g id="Group_12944" data-name="Group 12944" transform="translate(17964.703 -710.782)">
    <g id="_cb2127ff" data-name="#cb2127ff" transform="translate(-17962.576 710.782)">
      <path id="Path_10527" data-name="Path 10527" d="M178.526,5.12A2.865,2.865,0,0,1,179.394.4c1.716-.771,4.468-.191,4.6,2.032v.607C183.889,5.673,180.386,6.447,178.526,5.12Z" transform="translate(-177.624 -0.079)" fill="#c9151b"/>
    </g>
    <path id="Path_10532" data-name="Path 10532" d="M174.1,20.969c1.7-.086,3.4-.035,5.095-.051-.615,3.779-1.175,7.566-1.8,11.346-.276.876.887.9,1.436.81-.206,1.183-.389,2.37-.56,3.557-1.627.385-3.452.7-5-.128-1.339-.813-1.172-2.573-1.012-3.908C172.863,28.718,173.509,24.846,174.1,20.969Z" transform="translate(-18136.861 697.975)" fill="#333"/>
  </g>
</svg>
