<svg id="like" xmlns="http://www.w3.org/2000/svg" width="14.796" height="15.221" viewBox="0 0 14.796 15.221">
  <path id="Path_10464" data-name="Path 10464" d="M7.119,10.348a1.891,1.891,0,0,1-.442-1.264A1.941,1.941,0,0,1,7.09,7.989a1.7,1.7,0,0,1,.4-1.958,3.515,3.515,0,0,1,2.556-.611,9.989,9.989,0,0,1,1.566.2h0c.159.029.328.064.5.1a5.553,5.553,0,0,0-.4-1.849A3.4,3.4,0,0,1,11.8.786,2.023,2.023,0,0,1,13.424,0a.8.8,0,0,1,.614.28A2.141,2.141,0,0,1,14.306,1.8c.42,1.127,1.6,3.89,2.594,4.657a.341.341,0,0,1,.051.045,3.419,3.419,0,0,1,.624.936,1.313,1.313,0,0,1,.63-.159h1.942A1.325,1.325,0,0,1,21.471,8.6v5.172A1.325,1.325,0,0,1,20.147,15.1H18.205a1.321,1.321,0,0,1-.764-.242l-.748.089a32.046,32.046,0,0,1-4.243.232c-.379.029-.735.045-1.066.045a7.141,7.141,0,0,1-1.48-.134,2.768,2.768,0,0,1-1.977-1.229,1.948,1.948,0,0,1-.216-1.219,2.03,2.03,0,0,1-.723-1.652A2.15,2.15,0,0,1,7.119,10.348Zm13.028,3.89a.465.465,0,0,0,.465-.465V8.6a.465.465,0,0,0-.465-.465H18.205a.465.465,0,0,0-.465.465V13.77a.465.465,0,0,0,.465.465h1.942ZM7.934,9.976a.428.428,0,0,1,.057.519,1.324,1.324,0,0,0-.146.532,1.274,1.274,0,0,0,.6,1.1.434.434,0,0,1,.146.49,1.124,1.124,0,0,0,.086.821,1.991,1.991,0,0,0,1.407.808,8.385,8.385,0,0,0,2.32.07h.045a31.418,31.418,0,0,0,4.138-.226h0l.321-.038a1.349,1.349,0,0,1-.029-.28V8.6a1.346,1.346,0,0,1,.06-.395,2.66,2.66,0,0,0-.592-1.092c-1.429-1.133-2.826-4.956-2.887-5.121a.4.4,0,0,1-.019-.213A1.989,1.989,0,0,0,13.4.853a1.142,1.142,0,0,0-.9.43A2.711,2.711,0,0,0,12.543,3.6c.535,1.62.579,2.473.156,2.849A.694.694,0,0,1,12,6.57c-.194-.045-.379-.083-.554-.111l-.041-.01c-.977-.213-2.728-.344-3.336.21a.916.916,0,0,0-.108,1.162.426.426,0,0,1-.076.554,1.206,1.206,0,0,0-.353.742A1.182,1.182,0,0,0,7.934,9.976Z" transform="translate(-6.675 0)" fill="#999"/>
</svg>
