<svg xmlns="http://www.w3.org/2000/svg" width="23.102" height="32.629" viewBox="0 0 23.102 32.629">
  <g id="location" transform="translate(-79.119 0.75)">
    <path id="Path_3600" data-name="Path 3600" d="M99.886,5.33A10.564,10.564,0,0,0,90.91,0c-.159,0-.32,0-.479,0A10.564,10.564,0,0,0,81.454,5.33a10.837,10.837,0,0,0-.141,10.708l7.719,14.129.011.019a1.876,1.876,0,0,0,3.255,0l.011-.019,7.719-14.129A10.838,10.838,0,0,0,99.886,5.33ZM90.67,14.105a4.378,4.378,0,1,1,4.378-4.378A4.383,4.383,0,0,1,90.67,14.105Z" transform="translate(0 0)" fill="none" stroke="#333" stroke-width="1.5"/>
  </g>
</svg>
