<svg xmlns="http://www.w3.org/2000/svg" width="16.5" height="19.5" viewBox="0 0 16.5 19.5">
  <g id="Iconly_Light-Outline_Location" data-name="Iconly/Light-Outline/Location" transform="translate(-4 -2)">
    <g id="Location" transform="translate(4 1)">
      <path id="Combined-Shape" d="M8.25,1A8.291,8.291,0,0,1,16.5,9.313c0,5.635-6.456,11.187-8.25,11.187S0,14.948,0,9.313A8.291,8.291,0,0,1,8.25,1Zm0,1.5A6.79,6.79,0,0,0,1.5,9.313c0,4.779,5.624,9.435,6.75,9.683C9.375,18.747,15,14.091,15,9.313A6.79,6.79,0,0,0,8.25,2.5Zm0,3.5A3.25,3.25,0,1,1,5,9.251,3.254,3.254,0,0,1,8.25,6Zm0,1.5A1.75,1.75,0,1,0,10,9.251,1.752,1.752,0,0,0,8.25,7.5Z" fill="#333" fill-rule="evenodd"/>
    </g>
  </g>
</svg>
