<svg xmlns="http://www.w3.org/2000/svg" width="291.226" height="174.099" viewBox="0 0 291.226 174.099">
  <g id="Group_14090" data-name="Group 14090" transform="translate(0 0)">
    <path id="Path_10694" data-name="Path 10694" d="M820.174,593.414a15.049,15.049,0,0,1-5.4-12.972,12.165,12.165,0,0,1,9.044-10.328c4.772-1.029,10.211,1.819,11.66,6.48.8-8.987,1.717-18.35,6.495-26a27.538,27.538,0,0,1,19.94-12.775,24.708,24.708,0,0,1,21.736,8.873,22.424,22.424,0,0,1,2.758,23.087c-2.613,5.421-7.427,9.455-12.471,12.738a80.49,80.49,0,0,1-55.05,12.043Z" transform="translate(-597.206 -421.27)" fill="#f2f2f2"/>
    <path id="Path_10695" data-name="Path 10695" d="M919.055,545.643a132.811,132.811,0,0,0-39.024,52.768c-.372.912,1.109,1.309,1.477.407a131.335,131.335,0,0,1,38.63-52.092c.765-.623-.325-1.7-1.083-1.083Z" transform="translate(-640.641 -426.448)" fill="#fff"/>
    <path id="Path_10696" data-name="Path 10696" d="M258.75,549.483c5.121-4.327,8.232-11.163,7.416-17.818s-5.868-12.772-12.422-14.186-14.025,2.5-16.015,8.9c-1.1-12.343-2.358-25.2-8.92-35.715A37.824,37.824,0,0,0,201.42,473.12c-11.154-1.218-22.9,3.383-29.854,12.187s-8.66,21.6-3.788,31.71c3.589,7.446,10.2,12.987,17.129,17.5a110.552,110.552,0,0,0,75.611,16.541" transform="translate(-165 -378.196)" fill="#f2f2f2"/>
    <path id="Path_10697" data-name="Path 10697" d="M213.9,483.869A180.88,180.88,0,0,1,239.107,508.9,181.406,181.406,0,0,1,267.5,556.345c.511,1.253-1.523,1.8-2.029.559a179.542,179.542,0,0,0-16.405-31.04,180.231,180.231,0,0,0-36.653-40.508c-1.05-.855.446-2.336,1.488-1.488Z" transform="translate(-196.303 -385.307)" fill="#fff"/>
    <path id="Path_10698" data-name="Path 10698" d="M546.681,363.662H424.5V238.3a48.425,48.425,0,0,1,48.37-48.37h25.441a48.425,48.425,0,0,1,48.37,48.37Z" transform="translate(-337.635 -189.931)" fill="#f2f2f2"/>
    <path id="Path_10699" data-name="Path 10699" d="M521.24,363.665H424.5V238.3a48,48,0,0,1,9.237-28.434c.222-.3.444-.6.672-.9A48.36,48.36,0,0,1,444.7,198.98c.221-.161.443-.319.668-.476a48.255,48.255,0,0,1,10.535-5.51c.221-.084.446-.168.672-.248a48.21,48.21,0,0,1,10.413-2.456c.22-.03.446-.054.672-.077a48.97,48.97,0,0,1,10.412,0c.225.024.451.047.674.077a48.2,48.2,0,0,1,10.411,2.455c.225.081.451.165.672.249a48.136,48.136,0,0,1,10.413,5.428c.225.154.45.312.672.47a48.869,48.869,0,0,1,6.154,5.21,48.3,48.3,0,0,1,4.259,4.871c.228.295.449.594.671.9A48,48,0,0,1,521.24,238.3Z" transform="translate(-337.634 -189.933)" fill="#ccc"/>
    <circle id="Ellipse_306" data-name="Ellipse 306" cx="5.356" cy="5.356" r="5.356" transform="translate(170.384 106.95)" fill="#d16d86"/>
    <path id="Path_10700" data-name="Path 10700" d="M582.563,476.324h-4.1l-1.953-15.829h6.057Z" transform="translate(-383.525 -306.348)" fill="#ffb8b8"/>
    <path id="Path_10701" data-name="Path 10701" d="M563.678,504.28h7.915v4.983H558.7A4.983,4.983,0,0,1,563.678,504.28Z" transform="translate(-371.676 -335.476)" fill="#2f2e41"/>
    <path id="Path_10702" data-name="Path 10702" d="M643.563,476.324h-4.1l-1.953-15.829h6.057Z" transform="translate(-424.106 -306.348)" fill="#ffb8b8"/>
    <path id="Path_10703" data-name="Path 10703" d="M624.678,504.28h7.915v4.983H619.7A4.983,4.983,0,0,1,624.678,504.28Z" transform="translate(-412.257 -335.476)" fill="#2f2e41"/>
    <path id="Path_10704" data-name="Path 10704" d="M696.865,441.644a3.6,3.6,0,0,1,1.51-5.3l13.951-38.451,6.865,3.746-15.929,36.745a3.616,3.616,0,0,1-6.4,3.263Z" transform="translate(-518.414 -328.277)" fill="#ffb8b8"/>
    <path id="Path_10705" data-name="Path 10705" d="M803.823,458.561a3.6,3.6,0,0,1-.968-5.428l-4.321-40.674,7.812.357,1.8,40.009a3.616,3.616,0,0,1-4.318,5.737Z" transform="translate(-586.463 -337.969)" fill="#ffb8b8"/>
    <circle id="Ellipse_307" data-name="Ellipse 307" cx="8.222" cy="8.222" r="8.222" transform="translate(196.676 46.048)" fill="#ffb8b8"/>
    <path id="Path_10706" data-name="Path 10706" d="M764.92,431.492H740.133l.03-.193c.044-.288,4.417-28.935,1.192-38.307a3.954,3.954,0,0,1,2.032-4.882h0c4.61-2.171,13.459-4.844,20.928,1.643a9.452,9.452,0,0,1,3.167,7.832Z" transform="translate(-547.612 -320.151)" fill="#d16d86"/>
    <path id="Path_10707" data-name="Path 10707" d="M732.177,412.061,721.018,409.8l5.231-12.4a4.685,4.685,0,1,1,9.073,2.342Z" transform="translate(-534.896 -325.614)" fill="#d16d86"/>
    <path id="Path_10708" data-name="Path 10708" d="M795.534,417.989l-.671-15.379c-.509-2.891,1.146-5.624,3.691-6.07s5.032,1.56,5.543,4.472l2.522,14.37Z" transform="translate(-583.96 -327.338)" fill="#d16d86"/>
    <path id="Path_10709" data-name="Path 10709" d="M761.441,517.049c3.988,15.19,4.423,34.5,3.347,55.567l-5.356-.669-9.708-40.169-5.356,40.839-6.025-.335c-1.8-22.1-3.553-41.078-.669-53.559Z" transform="translate(-544.958 -407.549)" fill="#2f2e41"/>
    <path id="Path_10710" data-name="Path 10710" d="M762.906,334.538a2.656,2.656,0,0,1-4.582-1.475,2.7,2.7,0,0,1,0-.521c.1-.989.674-1.886.538-2.93a1.537,1.537,0,0,0-.281-.719c-1.222-1.637-4.091.732-5.245-.75-.707-.909.124-2.339-.419-3.354-.716-1.34-2.838-.679-4.169-1.413-1.48-.817-1.392-3.088-.417-4.47a7.031,7.031,0,0,1,5.33-2.714,14.3,14.3,0,0,1,6.023,1.175,12.036,12.036,0,0,1,5.691,3.946,9.633,9.633,0,0,1,.974,8.2C765.855,331.175,764.158,333.2,762.906,334.538Z" transform="translate(-552.591 -273.914)" fill="#2f2e41"/>
    <path id="Path_10711" data-name="Path 10711" d="M513.032,707.99H265.894a.4.4,0,1,1,0-.8H513.032a.4.4,0,0,1,0,.8Z" transform="translate(-231.855 -534.043)" fill="#3f3d56"/>
    <path id="Path_10712" data-name="Path 10712" d="M543.192,398.858H499.676a2.164,2.164,0,0,1-2.176-2.147V299.578a2.164,2.164,0,0,1,2.176-2.147h43.516a2.164,2.164,0,0,1,2.176,2.147V396.71A2.164,2.164,0,0,1,543.192,398.858Z" transform="translate(-386.198 -261.446)" fill="#fff"/>
    <rect id="Rectangle_17660" data-name="Rectangle 17660" width="47.868" height="0.669" transform="translate(111.302 67.414)" fill="#ccc"/>
    <rect id="Rectangle_17661" data-name="Rectangle 17661" width="47.868" height="0.669" transform="translate(111.469 105.611)" fill="#ccc"/>
    <rect id="Rectangle_17662" data-name="Rectangle 17662" width="0.669" height="101.762" transform="translate(126.365 35.985)" fill="#ccc"/>
    <rect id="Rectangle_17663" data-name="Rectangle 17663" width="0.669" height="101.762" transform="translate(143.102 35.985)" fill="#ccc"/>
  </g>
</svg>
