<svg xmlns="http://www.w3.org/2000/svg" width="20" height="20" viewBox="0 0 20 20">
  <g id="Iconly_Light-Outline_Logout" data-name="Iconly/Light-Outline/Logout" transform="translate(-2 -2)">
    <g id="Logout" transform="translate(2 2)">
      <path id="Combined-Shape" d="M9.065,0a4.384,4.384,0,0,1,4.32,4.436v.932a.731.731,0,1,1-1.461,0V4.436A2.9,2.9,0,0,0,9.065,1.5H4.317A2.9,2.9,0,0,0,1.461,4.436V15.565A2.9,2.9,0,0,0,4.317,18.5H9.076a2.891,2.891,0,0,0,2.849-2.924v-.943a.731.731,0,1,1,1.461,0v.943A4.373,4.373,0,0,1,9.076,20H4.317A4.382,4.382,0,0,1,0,15.565V4.436A4.383,4.383,0,0,1,4.317,0Zm7.869,6.554,2.851,2.915a.735.735,0,0,1,.069.081l-.069-.081a.738.738,0,0,1,.092.114c.012.018.023.038.034.057s.016.031.024.048.012.029.018.043.014.039.019.058.008.031.012.047.008.038.01.058,0,.026,0,.039,0,.045,0,.067l0,.062,0,.04v.005L20,10a.767.767,0,0,1-.018.164c0,.016-.007.031-.012.047s-.012.04-.019.059-.011.029-.018.043-.015.033-.023.048-.022.038-.034.057l-.022.033a.788.788,0,0,1-.076.088l-2.845,2.909a.715.715,0,0,1-1.032,0,.764.764,0,0,1,0-1.06l1.6-1.635H7.544a.75.75,0,0,1,0-1.5H17.5L15.9,7.616a.763.763,0,0,1,0-1.06A.716.716,0,0,1,16.934,6.554Z" transform="translate(0)" fill="#d16d86" fill-rule="evenodd"/>
    </g>
  </g>
</svg>
