<svg xmlns="http://www.w3.org/2000/svg" xmlns:xlink="http://www.w3.org/1999/xlink" width="58" height="58" viewBox="0 0 58 58">
  <defs>
    <filter id="Ellipse_61" x="0" y="0" width="58" height="58" filterUnits="userSpaceOnUse">
      <feOffset dy="3" input="SourceAlpha"/>
      <feGaussianBlur stdDeviation="5" result="blur"/>
      <feFlood flood-color="#404040" flood-opacity="0.098"/>
      <feComposite operator="in" in2="blur"/>
      <feComposite in="SourceGraphic"/>
    </filter>
  </defs>
  <g id="Group_12843" data-name="Group 12843" transform="translate(-125 -91)">
    <g transform="matrix(1, 0, 0, 1, 125, 91)" filter="url(#Ellipse_61)">
      <circle id="Ellipse_61-2" data-name="Ellipse 61" cx="14" cy="14" r="14" transform="translate(15 12)" fill="#fff"/>
    </g>
    <path id="heart" d="M13.063,1.235A3.815,3.815,0,0,0,10.225,0,3.569,3.569,0,0,0,8,.77a4.561,4.561,0,0,0-.9.941,4.558,4.558,0,0,0-.9-.941A3.569,3.569,0,0,0,3.964,0,3.815,3.815,0,0,0,1.126,1.235,4.435,4.435,0,0,0,0,4.264,5.281,5.281,0,0,0,1.408,7.721,30.007,30.007,0,0,0,4.93,11.027c.488.416,1.041.888,1.616,1.39a.833.833,0,0,0,1.1,0c.574-.5,1.128-.974,1.616-1.39a29.99,29.99,0,0,0,3.522-3.306,5.28,5.28,0,0,0,1.407-3.457,4.434,4.434,0,0,0-1.126-3.028Zm0,0" transform="translate(146.999 111)" fill="#f8236b"/>
  </g>
</svg>
