<svg xmlns="http://www.w3.org/2000/svg" width="34.085" height="37.958" viewBox="0 0 34.085 37.958">
  <path id="Shape" d="M26.492,34.679c3.09,1.934,8.47,2.771,12.118,3.064,5.97.479,16.357.075,21.372-3.064a.633.633,0,0,0-.053-1.1c-.533-.265-2.165-1.159-2.971-1.619-4.223-2.461-3.375-.051-8.026-4.43v-3.68a5.222,5.222,0,0,0,1.984-3.91,4.013,4.013,0,0,0,1.764-1.628.633.633,0,0,0,.642-.409c.115-.307,2.774-7.569-.045-12.46C50.632.845,45.284-1.837,41.149,1.328A7.679,7.679,0,0,0,34.518,4.1c-2.255,2.794-1.351,7.195-.9,8.846-.852.851-.55,2.885-.414,3.583a4.337,4.337,0,0,0,2.353,3.417,5.221,5.221,0,0,0,1.983,3.9v3.682a21.185,21.185,0,0,1-2.917,2.385,5.63,5.63,0,0,1-1.693.663c-1.832.324-2.829,1.1-6.094,2.848-.27.144-.621.249-.643.685a.633.633,0,0,0,.3.57Zm29.835-1.625c.652.373,1.315.737,1.98,1.1a28.4,28.4,0,0,1-7.868,2.044,9.437,9.437,0,0,0,2.116-4.58A11.473,11.473,0,0,1,56.327,33.053ZM50.895,18.479a9.049,9.049,0,0,1,.266-2.944,8.648,8.648,0,0,1,.714,1.482,3.012,3.012,0,0,1-.981,1.462ZM35.5,4.9a6.431,6.431,0,0,1,5.733-2.283.637.637,0,0,0,.506-.137C45.27-.434,49.905,2.123,52.184,6.07c1.729,3,1.076,7.214.487,9.584a17.112,17.112,0,0,0-6.62-6.7c-1.8-.9-2.7,0-2.45,1.573-4-1.141-4.16-2.888-4.16-2.888a.633.633,0,0,0-.633-.633c-1.261,0-3.431.68-3.789,5.235-.006.063,0,.147.011.415-.058-.01-.121-.016-.184-.022-.371-1.366-1.237-5.39.657-7.737ZM34.465,16.4a.554.554,0,0,0-.011-.08,4.266,4.266,0,0,1,.032-2.453,1.322,1.322,0,0,1,.628.127c.22,2.252.563,2.391.466,4.487A3.183,3.183,0,0,1,34.465,16.4Zm2.4,1.29c0-1.645-.513-2.369-.588-5.379.135-1.672.607-3.619,2.036-3.978.362.978,1.631,2.716,6.047,3.692a.633.633,0,0,0,.724-.854,3.242,3.242,0,0,1-.265-1.311,1.917,1.917,0,0,1,.663.228,15.769,15.769,0,0,1,4.606,3.944c-.147,1.449-.492,2.434-.492,3.659,0,2.071.483,3.39-1.407,5.107a12.522,12.522,0,0,0-1.857,2.236c-.728,1.069-1.062,1.5-2.025,1.5H42.161c-1.746,0-1.651-1.709-3.884-3.74-1.888-1.716-1.406-3.069-1.406-5.107Zm.672,11.554v1.09a.633.633,0,1,0,1.266,0v-5c.933,1.325,1.527,2.464,3.354,2.464,3.481,0,3.581.276,5.506-2.464v5a.633.633,0,1,0,1.266,0v-1.09a14.42,14.42,0,0,0,2.431,1.844c-.232,1.444-1.023,4.541-3.612,5.4a57.171,57.171,0,0,1-9.021,0c-2.595-.853-3.388-3.951-3.619-5.4a14.444,14.444,0,0,0,2.43-1.843Zm-7.39,3.807a11.514,11.514,0,0,1,3.768-1.437,9.441,9.441,0,0,0,2.116,4.581,28.427,28.427,0,0,1-7.868-2.045Q29.166,33.609,30.152,33.05Z" transform="translate(-26.194 0.048)" fill="#333"/>
</svg>
