<svg xmlns="http://www.w3.org/2000/svg" width="30.417" height="28" viewBox="0 0 30.417 28">
  <g id="Massage" transform="translate(0.5 -1.965)">
    <path id="Path_7" data-name="Path 7" d="M19.645,13.465,2.907,13.5A2.911,2.911,0,0,0,0,16.407V26.772a2.91,2.91,0,0,0,2.907,2.907H5.883v4.9a.49.49,0,0,0,.853.33l4.758-5.234,8.151-.033a2.91,2.91,0,0,0,2.907-2.907V16.372A2.911,2.911,0,0,0,19.645,13.465ZM4.9,18.368h6.374a.49.49,0,0,1,0,.981H4.9a.49.49,0,1,1,0-.981ZM17.65,25.232H4.9a.49.49,0,1,1,0-.981H17.65a.49.49,0,0,1,0,.981Zm0-2.942H4.9a.49.49,0,1,1,0-.981H17.65a.49.49,0,1,1,0,.981Z" transform="translate(0 -5.607)" fill="none" stroke="#333" stroke-width="1"/>
    <path id="Path_8" data-name="Path 8" d="M33.647,2.5,16.907,2.465A2.911,2.911,0,0,0,14,5.372V6.9l12.779-.026a3.893,3.893,0,0,1,3.891,3.888V22.154l1.6,1.758a.49.49,0,0,0,.853-.33v-4.9h.525a2.91,2.91,0,0,0,2.907-2.907V5.407A2.91,2.91,0,0,0,33.647,2.5Z" transform="translate(-7.136)" fill="none" stroke="#333" stroke-width="1"/>
  </g>
</svg>
