<svg xmlns="http://www.w3.org/2000/svg" width="20" height="20" viewBox="0 0 20 20">
  <g id="comment-alt" transform="translate(0 0)">
    <path id="Path_10575" data-name="Path 10575" d="M16.667,0H3.333A3.333,3.333,0,0,0,0,3.333v10a3.333,3.333,0,0,0,3.333,3.333H5.75L9.459,19.8a.833.833,0,0,0,1.077,0l3.714-3.136h2.417A3.333,3.333,0,0,0,20,13.334v-10A3.333,3.333,0,0,0,16.667,0Zm1.667,13.334A1.667,1.667,0,0,1,16.667,15H14.25a1.667,1.667,0,0,0-1.076.394L10,18.075,6.828,15.394h0A1.667,1.667,0,0,0,5.75,15H3.333a1.667,1.667,0,0,1-1.667-1.667v-10A1.667,1.667,0,0,1,3.333,1.667H16.667a1.667,1.667,0,0,1,1.667,1.667Z" transform="translate(0 0)" fill="#fab75a"/>
    <path id="Path_10576" data-name="Path 10576" d="M6.792,6.583H10.75A.792.792,0,0,0,10.75,5H6.792a.792.792,0,1,0,0,1.583Z" transform="translate(-0.897 -0.814)" fill="#fab75a"/>
    <path id="Path_10577" data-name="Path 10577" d="M14.709,9H6.792a.792.792,0,1,0,0,1.583h7.917a.792.792,0,0,0,0-1.583Z" transform="translate(-0.75 -1.466)" fill="#fab75a"/>
    <path id="Path_10578" data-name="Path 10578" d="M14.709,13H6.792a.792.792,0,1,0,0,1.583h7.917a.792.792,0,1,0,0-1.583Z" transform="translate(-0.75 -2.117)" fill="#fab75a"/>
  </g>
</svg>
