<svg xmlns="http://www.w3.org/2000/svg" width="24" height="24" viewBox="0 0 24 24">
  <g id="Group_4028" data-name="Group 4028" transform="translate(-40 -1150)">
    <path id="Path_3078" data-name="Path 3078" d="M40,1150H64v24H40Z" fill="none"/>
    <path id="Path_3079" data-name="Path 3079" d="M52,1172a2.006,2.006,0,0,0,2-2H50A2.006,2.006,0,0,0,52,1172Zm6-6v-5c0-3.07-1.63-5.64-4.5-6.32V1154a1.5,1.5,0,0,0-3,0v.68c-2.86.68-4.5,3.24-4.5,6.32v5l-2,2v1H60v-1Zm-2,1H48v-6c0-2.48,1.51-4.5,4-4.5s4,2.02,4,4.5Z" fill="#29c17e"/>
  </g>
</svg>
