<svg xmlns="http://www.w3.org/2000/svg" width="17.207" height="20" viewBox="0 0 17.207 20">
  <g id="Iconly_Light-Outline_Notification" data-name="Iconly/Light-Outline/Notification" transform="translate(0)">
    <g id="Notification" transform="translate(0)">
      <path id="Combined-Shape" d="M6.813,17.773a2.347,2.347,0,0,0,1.742.832h0a2.355,2.355,0,0,0,1.749-.833.7.7,0,0,1,1.037.934A3.736,3.736,0,0,1,8.557,20h0a3.725,3.725,0,0,1-2.779-1.295.7.7,0,0,1,1.037-.932ZM8.6,0a6.677,6.677,0,0,1,6.913,6.228,4.759,4.759,0,0,0,.811,2.9,5.051,5.051,0,0,1,.881,2.94c-.325,3.765-4.255,4.072-8.6,4.072S.321,15.831,0,12.126a5.094,5.094,0,0,1,.878-3l.146-.245a4.666,4.666,0,0,0,.665-2.653A6.677,6.677,0,0,1,8.6,0Zm0,1.4c-3.251,0-5.517,2.547-5.517,4.833A6.065,6.065,0,0,1,2.074,9.845a3.678,3.678,0,0,0-.681,2.221c.155,1.754,1.313,2.676,7.209,2.676,5.863,0,7.058-.963,7.212-2.737a3.641,3.641,0,0,0-.684-2.161,6.065,6.065,0,0,1-1.011-3.617C14.119,3.942,11.853,1.4,8.6,1.4Z" transform="translate(0)" fill="#6dbea3" fill-rule="evenodd"/>
    </g>
  </g>
</svg>
