<svg xmlns="http://www.w3.org/2000/svg" width="25.505" height="28.686" viewBox="0 0 25.505 28.686">
  <path id="Path_10443" data-name="Path 10443" d="M48.441,45.8,46.9,29.05a2.044,2.044,0,0,0-2.025-1.78H42.629v-.706a6.673,6.673,0,1,0-13.346,0v.706H27.041a2.053,2.053,0,0,0-2.03,1.808l-1.54,16.695a2.044,2.044,0,0,0,2.025,2.3H46.416a2.049,2.049,0,0,0,1.531-.692,2.02,2.02,0,0,0,.494-1.582ZM30.7,26.563a5.265,5.265,0,0,1,10.521,0v.706H30.7ZM46.886,46.446a.612.612,0,0,1-.471.217H25.5a.6.6,0,0,1-.471-.217.636.636,0,0,1-.151-.518l1.54-16.7a.636.636,0,0,1,.626-.546h2.242v1.959a.706.706,0,1,0,1.413,0V28.682H41.216v1.959a.706.706,0,0,0,1.413,0V28.682h2.242a.626.626,0,0,1,.622.523l1.545,16.747A.608.608,0,0,1,46.886,46.446Z" transform="translate(-23.202 -19.64)" fill="#333" stroke="#333" stroke-width="0.5"/>
</svg>
