<svg xmlns="http://www.w3.org/2000/svg" width="20" height="20" viewBox="0 0 20 20">
  <path id="shopping-bag_1_" data-name="shopping-bag(1)" d="M17.5,5H15A5,5,0,1,0,5,5H2.5A2.5,2.5,0,0,0,0,7.5v8.333A4.172,4.172,0,0,0,4.167,20H15.833A4.172,4.172,0,0,0,20,15.833V7.5A2.5,2.5,0,0,0,17.5,5ZM10,1.667A3.333,3.333,0,0,1,13.333,5H6.667A3.333,3.333,0,0,1,10,1.667Zm8.333,14.167a2.5,2.5,0,0,1-2.5,2.5H4.167a2.5,2.5,0,0,1-2.5-2.5V7.5A.833.833,0,0,1,2.5,6.667H5V8.333a.833.833,0,1,0,1.667,0V6.667h6.667V8.333a.833.833,0,1,0,1.667,0V6.667h2.5a.833.833,0,0,1,.833.833Z" fill="#4179e0"/>
</svg>
