<svg xmlns="http://www.w3.org/2000/svg" width="22.75" height="30.333" viewBox="0 0 22.75 30.333">
  <g id="password_1_" data-name="password(1)" transform="translate(-3)">
    <path id="Path_3735" data-name="Path 3735" d="M22.906,27.958H5.844A2.847,2.847,0,0,1,3,25.115V11.844A2.847,2.847,0,0,1,5.844,9H22.906a2.847,2.847,0,0,1,2.844,2.844V25.115A2.847,2.847,0,0,1,22.906,27.958ZM5.844,10.9a.949.949,0,0,0-.948.948V25.115a.949.949,0,0,0,.948.948H22.906a.949.949,0,0,0,.948-.948V11.844a.949.949,0,0,0-.948-.948Z" transform="translate(0 2.375)" fill="#333"/>
    <path id="Path_3736" data-name="Path 3736" d="M20.219,13.271a.948.948,0,0,1-.948-.948V7.583a5.688,5.688,0,0,0-11.375,0v4.74a.948.948,0,1,1-1.9,0V7.583a7.583,7.583,0,1,1,15.167,0v4.74A.948.948,0,0,1,20.219,13.271Z" transform="translate(0.792)" fill="#333"/>
    <path id="Path_3737" data-name="Path 3737" d="M12.528,18.056a2.528,2.528,0,1,1,2.528-2.528A2.53,2.53,0,0,1,12.528,18.056Zm0-3.16a.632.632,0,1,0,.632.632A.633.633,0,0,0,12.528,14.9Z" transform="translate(1.847 3.431)" fill="#333"/>
    <path id="Path_3738" data-name="Path 3738" d="M12.2,21.122a.948.948,0,0,1-.948-.948V16.7a.948.948,0,1,1,1.9,0v3.476A.948.948,0,0,1,12.2,21.122Z" transform="translate(2.177 4.156)" fill="#333"/>
  </g>
</svg>
