<svg id="Call" xmlns="http://www.w3.org/2000/svg" width="17" height="17" viewBox="0 0 17 17">
  <path id="Fill-1" d="M1.957,2.538s-.04.043-.092.095a1.866,1.866,0,0,0-.62,1.449c-.007,1.187.774,3.39,4.531,7.147,3.74,3.738,5.94,4.528,7.129,4.528h.017a1.87,1.87,0,0,0,1.449-.62A1.938,1.938,0,0,1,14.513,15c.826-.831,1.249-1.45,1.245-1.846s-.509-.883-1.2-1.545c-.221-.211-.462-.44-.716-.693-.658-.656-.984-.544-1.7-.292-.991.347-2.351.82-4.464-1.294S6.03,5.858,6.377,4.867c.25-.716.365-1.043-.294-1.7-.258-.257-.489-.5-.7-.725-.658-.692-1.132-1.192-1.534-1.2H3.84c-.4,0-1.014.425-1.887,1.3l0,0ZM12.905,17c-2.067,0-4.761-1.645-8.009-4.892S-.012,6.145,0,4.075A3.089,3.089,0,0,1,.995,1.743c.014-.017.062-.065.079-.081C2.263.471,3.065-.009,3.862,0c.926.013,1.586.706,2.42,1.584.206.217.43.454.68.7a2.453,2.453,0,0,1,.589,2.991c-.3.865-.563,1.611,1,3.175s2.312,1.3,3.174,1a2.452,2.452,0,0,1,2.991.587c.245.245.478.467.693.672.882.838,1.579,1.5,1.591,2.43.01.792-.471,1.6-1.659,2.787l-.526-.357.444.435a3.087,3.087,0,0,1-2.332,1Z" transform="translate(0 0.001)" fill="#333" fill-rule="evenodd"/>
</svg>
