<svg xmlns="http://www.w3.org/2000/svg" width="17.062" height="21" viewBox="0 0 17.062 21">
  <path id="pinterest" d="M11.067,0C5.31,0,2.25,3.689,2.25,7.711c0,1.865,1.042,4.191,2.711,4.929.476.214.413-.047.823-1.614a.372.372,0,0,0-.089-.365C3.309,7.9,5.229,2.23,10.726,2.23c7.956,0,6.47,11.009,1.384,11.009a1.878,1.878,0,0,1-1.978-2.3C10.507,9.421,11.24,7.791,11.24,6.7c0-2.755-4.1-2.346-4.1,1.3a4.415,4.415,0,0,0,.4,1.889s-1.32,5.334-1.565,6.331a14.155,14.155,0,0,0,.1,4.653.138.138,0,0,0,.252.064,16.5,16.5,0,0,0,2.174-4.093c.163-.6.83-3.032.83-3.032a3.628,3.628,0,0,0,3.061,1.46c4.022,0,6.928-3.535,6.928-7.921C19.3,3.147,15.7,0,11.067,0Z" transform="translate(-2.25)" fill="#ff414b"/>
</svg>
