<svg xmlns="http://www.w3.org/2000/svg" width="15.668" height="20.891" viewBox="0 0 15.668 20.891">
  <g id="user_1_" data-name="user(1)" transform="translate(-3)">
    <path id="Path_10568" data-name="Path 10568" d="M11.223,10.446A5.223,5.223,0,1,0,6,5.223a5.223,5.223,0,0,0,5.223,5.223Zm0-8.7A3.482,3.482,0,1,1,7.741,5.223a3.482,3.482,0,0,1,3.482-3.482Z" transform="translate(-0.389)" fill="#4179e0"/>
    <path id="Path_10569" data-name="Path 10569" d="M10.834,14A7.843,7.843,0,0,0,3,21.834a.87.87,0,1,0,1.741,0,6.093,6.093,0,1,1,12.186,0,.87.87,0,0,0,1.741,0A7.843,7.843,0,0,0,10.834,14Z" transform="translate(0 -1.814)" fill="#4179e0"/>
  </g>
</svg>
