<svg xmlns="http://www.w3.org/2000/svg" width="22" height="26" viewBox="0 0 22 26">
  <g id="Group_14732" data-name="Group 14732" transform="translate(-917 -1613.623)">
    <path id="Path_4436" data-name="Path 4436" d="M21.338,17.363a13.127,13.127,0,0,1-3.122,4.894,16.32,16.32,0,0,1-6.1,3.638,1.908,1.908,0,0,1-.252.069,1.889,1.889,0,0,1-.341.036H11.5a1.881,1.881,0,0,1-.364-.036,1.961,1.961,0,0,1-.25-.069A16.318,16.318,0,0,1,4.778,22.26a13.1,13.1,0,0,1-3.121-4.893C.4,13.923.468,10.129.526,7.081V7.034c.012-.252.019-.516.023-.808a2.748,2.748,0,0,1,2.578-2.7A10.592,10.592,0,0,0,10.36.459l.017-.016a1.647,1.647,0,0,1,2.247,0l.017.016a10.594,10.594,0,0,0,7.232,3.068,2.748,2.748,0,0,1,2.578,2.7c0,.294.012.558.023.808v.02C22.532,10.108,22.6,13.909,21.338,17.363Zm0,0" transform="translate(916.5 1613.623)" fill="#56a8c7"/>
    <path id="Path_4440" data-name="Path 4440" d="M163.744,213.987l-4.5,4.5-.972.972a1.177,1.177,0,0,1-1.663,0l-2.089-2.09a1.175,1.175,0,0,1,1.662-1.662l1.259,1.259,4.638-4.638a1.175,1.175,0,1,1,1.662,1.662Zm0,0" transform="translate(768.818 1411.029)" fill="#fff"/>
  </g>
</svg>
