<svg xmlns="http://www.w3.org/2000/svg" width="20" height="20" viewBox="0 0 20 20">
  <path id="trophy" d="M12.576,13.333C18.051,13.3,20,10.4,20,7.917a2.917,2.917,0,0,0-2.3-2.849c.113-.323.212-.618.277-.842a3.239,3.239,0,0,0-.522-2.882A3.316,3.316,0,0,0,14.774,0H5.226A3.316,3.316,0,0,0,2.547,1.343a3.239,3.239,0,0,0-.522,2.882c.066.224.167.52.277.842A2.917,2.917,0,0,0,0,7.917C0,10.4,1.949,13.3,7.424,13.333A4.217,4.217,0,0,1,7.5,14.1v2.566a1.569,1.569,0,0,1-1.667,1.667H5A.833.833,0,1,0,5,20H15a.833.833,0,1,0,0-1.667h-.827A1.571,1.571,0,0,1,12.5,16.667V14.1a4.215,4.215,0,0,1,.076-.767Zm4.507-6.667a1.25,1.25,0,0,1,1.25,1.25c0,1.695-1.341,3.5-5.03,3.725a4.039,4.039,0,0,1,.635-.684,12.61,12.61,0,0,0,3.106-4.3C17.057,6.659,17.069,6.667,17.083,6.667ZM1.667,7.917a1.25,1.25,0,0,1,1.25-1.25c.014,0,.026-.007.039-.008a12.61,12.61,0,0,0,3.106,4.3,4.039,4.039,0,0,1,.635.684C3.007,11.417,1.667,9.612,1.667,7.917ZM8.761,18.333a3.4,3.4,0,0,0,.406-1.667V14.1A5.775,5.775,0,0,0,7.141,9.688,12.782,12.782,0,0,1,3.624,3.75a1.583,1.583,0,0,1,.258-1.412,1.662,1.662,0,0,1,1.343-.672h9.548a1.662,1.662,0,0,1,1.343.675,1.583,1.583,0,0,1,.258,1.412,12.782,12.782,0,0,1-3.517,5.935A5.773,5.773,0,0,0,10.833,14.1v2.567a3.4,3.4,0,0,0,.406,1.667Z" transform="translate(0 0)" fill="#fab75a"/>
</svg>
