<svg xmlns="http://www.w3.org/2000/svg" width="30.5" height="30.5" viewBox="0 0 30.5 30.5">
  <g id="Setting" transform="translate(0.75 0.75)">
    <g id="Group_188" data-name="Group 188">
      <path id="Path_6" data-name="Path 6" d="M28.15,11.385h-2.4a11.544,11.544,0,0,0-1.092-2.634l1.7-1.7a.85.85,0,0,0,0-1.2l-3.2-3.2a.85.85,0,0,0-1.2,0l-1.7,1.7a11.547,11.547,0,0,0-2.634-1.092V.85a.85.85,0,0,0-.85-.85H12.234a.85.85,0,0,0-.85.85v2.4A11.547,11.547,0,0,0,8.751,4.345l-1.7-1.7a.85.85,0,0,0-1.2,0l-3.2,3.2a.85.85,0,0,0,0,1.2l1.7,1.7a11.542,11.542,0,0,0-1.092,2.634H.85a.85.85,0,0,0-.85.85v4.531a.85.85,0,0,0,.85.85h2.4a11.544,11.544,0,0,0,1.092,2.634l-1.7,1.7a.85.85,0,0,0,0,1.2l3.2,3.2a.85.85,0,0,0,1.2,0l1.7-1.7a11.547,11.547,0,0,0,2.634,1.092v2.4a.85.85,0,0,0,.85.85h4.531a.85.85,0,0,0,.85-.85v-2.4a11.547,11.547,0,0,0,2.634-1.092l1.7,1.7a.85.85,0,0,0,1.2,0l3.2-3.2a.85.85,0,0,0,0-1.2l-1.7-1.7a11.541,11.541,0,0,0,1.092-2.634h2.4a.85.85,0,0,0,.85-.85V12.234A.85.85,0,0,0,28.15,11.385ZM14.5,21.014A6.514,6.514,0,1,1,21.014,14.5,6.521,6.521,0,0,1,14.5,21.014Z" fill="none" stroke="#20b2aa" stroke-width="1.5"/>
    </g>
  </g>
</svg>
