<svg xmlns="http://www.w3.org/2000/svg" width="18.193" height="19.548" viewBox="0 0 18.193 19.548">
  <g id="Iconly_Light-Outline_Setting" data-name="Iconly/Light-Outline/Setting" transform="translate(-2 -2)">
    <g id="Setting" transform="translate(2 2)">
      <path id="Combined-Shape" d="M9.686,1A2.509,2.509,0,0,1,12.2,3.584a1.008,1.008,0,0,0,.142.481,1.087,1.087,0,0,0,1.493.392,2.52,2.52,0,0,1,3.434.922L17.856,6.4a.8.8,0,0,1,.04.081,2.522,2.522,0,0,1-.953,3.344,1.077,1.077,0,0,0-.4.4,1.107,1.107,0,0,0-.113.833,1.077,1.077,0,0,0,.509.663,2.5,2.5,0,0,1,.915,3.431l-.626,1.043a2.514,2.514,0,0,1-3.422.9,1.123,1.123,0,0,0-.526-.146h-.006a1.092,1.092,0,0,0-.757.319,1.079,1.079,0,0,0-.318.775,2.519,2.519,0,0,1-2.513,2.507H8.5a2.515,2.515,0,0,1-2.513-2.512,1.016,1.016,0,0,0-.142-.5,1.08,1.08,0,0,0-1.487-.407,2.512,2.512,0,0,1-3.437-.967l-.59-1.016a2.507,2.507,0,0,1,.915-3.42,1.1,1.1,0,0,0,0-1.9A2.517,2.517,0,0,1,.334,6.4l.64-1.05a2.511,2.511,0,0,1,3.417-.911,1.033,1.033,0,0,0,.521.148A1.1,1.1,0,0,0,6,3.5,2.5,2.5,0,0,1,8.5,1Zm0,1.415H8.5A1.085,1.085,0,0,0,7.415,3.509,2.526,2.526,0,0,1,4.9,6a2.434,2.434,0,0,1-1.225-.342,1.1,1.1,0,0,0-1.487.411l-.639,1.05A1.1,1.1,0,0,0,1.96,8.6a2.512,2.512,0,0,1,0,4.351,1.09,1.09,0,0,0-.4,1.486l.6,1.026a1.1,1.1,0,0,0,1.5.438,2.5,2.5,0,0,1,1.891-.25,2.517,2.517,0,0,1,1.52,1.171,2.418,2.418,0,0,1,.335,1.208,1.1,1.1,0,0,0,1.1,1.1H9.686a1.1,1.1,0,0,0,1.1-1.091A2.5,2.5,0,0,1,13.3,15.533a2.569,2.569,0,0,1,1.209.334,1.1,1.1,0,0,0,1.5-.4l.626-1.044a1.09,1.09,0,0,0-.4-1.483,2.488,2.488,0,0,1-1.172-1.526,2.519,2.519,0,0,1,.256-1.9,2.49,2.49,0,0,1,.916-.914,1.1,1.1,0,0,0,.393-1.489.526.526,0,0,1-.033-.065l-.553-.958a1.1,1.1,0,0,0-1.5-.4,2.5,2.5,0,0,1-3.423-.9,2.409,2.409,0,0,1-.339-1.213,1.125,1.125,0,0,0-.31-.825A1.1,1.1,0,0,0,9.686,2.416ZM9.1,7.58a3.194,3.194,0,1,1-3.194,3.2A3.2,3.2,0,0,1,9.1,7.58Zm0,1.415a1.779,1.779,0,1,0,1.779,1.78A1.782,1.782,0,0,0,9.1,8.995Z" transform="translate(0 -1)" fill="#333" fill-rule="evenodd"/>
    </g>
  </g>
</svg>
