<svg xmlns="http://www.w3.org/2000/svg" width="14.014" height="17.675" viewBox="0 0 14.014 17.675">
  <g id="Group_2926" data-name="Group 2926" transform="translate(-254.384 -732)">
    <path id="Path_3" data-name="Path 3" d="M67.029,112.094l-.789-9.946a1.243,1.243,0,0,0-1.234-1.143H63.447v2.31a.518.518,0,1,1-1.035,0v-2.31H57.65v2.31a.518.518,0,1,1-1.035,0v-2.31H55.055a1.243,1.243,0,0,0-1.234,1.141l-.79,9.949a2.878,2.878,0,0,0,2.87,3.1H64.16a2.878,2.878,0,0,0,2.869-3.1Zm-4.666-5.065-2.677,2.677a.517.517,0,0,1-.732,0L57.7,108.451a.518.518,0,1,1,.732-.732l.889.889,2.311-2.311a.518.518,0,1,1,.732.732Z" transform="translate(201.36 634.482)" fill="#fff"/>
    <path id="Path_4" data-name="Path 4" d="M160.456,0a3.421,3.421,0,0,0-3.416,3.417v.07h1.035v-.07a2.381,2.381,0,1,1,4.762,0v.07h1.035v-.07A3.421,3.421,0,0,0,160.456,0Z" transform="translate(100.936 732)" fill="#fff"/>
  </g>
</svg>
