<svg xmlns="http://www.w3.org/2000/svg" width="16.923" height="20" viewBox="0 0 16.923 20">
  <g id="Iconly_Light-Outline_Location" data-name="Iconly/Light-Outline/Location" transform="translate(0 0)">
    <g id="Location" transform="translate(0 0)">
      <path id="Combined-Shape" d="M8.461,1a8.5,8.5,0,0,1,8.462,8.526C16.923,15.306,10.3,21,8.461,21S0,15.306,0,9.526A8.5,8.5,0,0,1,8.461,1Zm0,1.538A6.964,6.964,0,0,0,1.538,9.526c0,4.9,5.768,9.677,6.923,9.931,1.155-.255,6.923-5.031,6.923-9.931A6.964,6.964,0,0,0,8.461,2.538Zm0,3.59A3.333,3.333,0,1,1,5.129,9.463,3.337,3.337,0,0,1,8.462,6.128Zm0,1.538a1.795,1.795,0,1,0,1.795,1.8A1.8,1.8,0,0,0,8.462,7.667Z" transform="translate(0.001 -1)" fill="#56a8c7" fill-rule="evenodd"/>
    </g>
  </g>
</svg>
