<svg xmlns="http://www.w3.org/2000/svg" xmlns:xlink="http://www.w3.org/1999/xlink" width="19.692" height="16" viewBox="0 0 19.692 16">
  <defs>
    <clipPath id="clip-path">
      <rect width="19.692" height="16" fill="none"/>
    </clipPath>
  </defs>
  <g id="twitter" clip-path="url(#clip-path)">
    <g id="twitter-2" data-name="twitter" transform="translate(0 -48)">
      <g id="Group_12929" data-name="Group 12929" transform="translate(0 48)">
        <path id="Path_10525" data-name="Path 10525" d="M19.692,49.894a8.417,8.417,0,0,1-2.326.638A4.014,4.014,0,0,0,19.142,48.3a8.068,8.068,0,0,1-2.56.977A4.037,4.037,0,0,0,9.6,52.038a4.157,4.157,0,0,0,.094.921,11.427,11.427,0,0,1-8.321-4.223,4.038,4.038,0,0,0,1.241,5.4,3.987,3.987,0,0,1-1.824-.5v.044a4.056,4.056,0,0,0,3.234,3.967,4.029,4.029,0,0,1-1.058.133A3.569,3.569,0,0,1,2.2,57.71a4.076,4.076,0,0,0,3.772,2.812A8.112,8.112,0,0,1,.966,62.244,7.56,7.56,0,0,1,0,62.188,11.365,11.365,0,0,0,6.193,64a11.411,11.411,0,0,0,11.49-11.488c0-.178-.006-.351-.015-.522A8.054,8.054,0,0,0,19.692,49.894Z" transform="translate(0 -48)" fill="#00b3ff"/>
      </g>
    </g>
  </g>
</svg>
