<svg xmlns="http://www.w3.org/2000/svg" width="20.004" height="16.67" viewBox="0 0 20.004 16.67">
  <path id="wallet" d="M17.5,5.334H4.167A2.51,2.51,0,0,1,2.3,4.5a2.5,2.5,0,0,1,1.863-.834h15A.833.833,0,1,0,19.17,2h-15A4.168,4.168,0,0,0,0,6.168V14.5A4.168,4.168,0,0,0,4.167,18.67H17.5a2.5,2.5,0,0,0,2.5-2.5V7.835A2.5,2.5,0,0,0,17.5,5.334Zm.833,10.835A.834.834,0,0,1,17.5,17H4.167a2.5,2.5,0,0,1-2.5-2.5V6.166A4.177,4.177,0,0,0,4.167,7H17.5a.834.834,0,0,1,.833.834ZM16.67,12a.833.833,0,1,1-.833-.833A.834.834,0,0,1,16.67,12Z" transform="translate(0 -2)" fill="#fab75a"/>
</svg>
